<?xml version="1.0" standalone="no"?>
  <!DOCTYPE svg PUBLIC "-//W3C//DTD SVG 1.1//EN" "http://www.w3.org/Graphics/SVG/1.1/DTD/svg11.dtd" >
  <svg>
  <metadata>
  Created by font-carrier
  </metadata>
  <defs>
  <font id="CreepsterCyrillic" horiz-adv-x="856" vert-adv-y="856" >
    <font-face
      
      font-family="Creepster Cyrillic"
      
      font-weight="400"
      
      font-stretch="normal"
      
      units-per-em="1024"
      
      ascent="974"
      
      descent="-223"
      
    />
      <missing-glyph />

      

      
      <glyph glyph-name="uni21" unicode="&#x21;" d="M160 308L158 237Q158 168 129 145Q110 132 95.50 134Q81 136 73 145Q65 154 64.50 166Q64 178 59.50 200.50Q55 223 48.50 245.50Q42 268 44 294Q46 320 46.50 343Q47 366 38 377Q26 392 26 411Q26 423 30 432Q39 458 39 478Q39 498 38 507Q37 516 35.50 524.50Q34 533 32 550.50Q30 568 32 590.50Q34 613 32 636Q30 659 29.50 673Q29 687 36 706.50Q43 726 47.50 732Q52 738 63 743.50Q74 749 78 751.50Q82 754 89 753Q96 752 104 743.50Q112 735 123 730Q134 725 148.50 718Q163 711 165 695.50Q167 680 168.50 677Q170 674 172 672Q174 668 176 645.50Q178 623 172.50 600.50Q167 578 166.50 563Q166 548 161 532.50Q156 517 157.50 500.50Q159 484 158 476Q157 468 155.50 461.50Q154 455 154 448Q154 441 157.50 426.50Q161 412 160.50 400Q160 388 161.50 374.50Q163 361 161.50 347.50Q160 334 160 308M34 18Q34 18 32.50 21.50Q31 25 32.50 33Q34 41 49 54Q64 67 86 79Q108 91 146 86Q164 84 174 65Q195 29 155 0Q137-12 123-14.50Q109-17 103.50-23.50Q98-30 86-27Q74-24 70-14.50Q66-5 58-2Q50 1 43.50 6Q37 11 34 18Z"  horiz-adv-x="207" vert-adv-y="1024"  />

      
      <glyph glyph-name="uni22" unicode="&#x22;" d="M83 729Q127 729 122 662Q119 628 110.50 577.50Q102 527 103.50 514.50Q105 502 105.50 489Q106 476 103 464Q96 437 68 437Q48 437 36 467Q25 492 24.50 531Q24 570 26 597Q28 624 21.50 640.50Q15 657 15 669Q15 681 17 692Q22 716 29.50 722.50Q37 729 43.50 733Q50 737 63 733Q76 729 83 729M172 508L167 582L167 600Q167 609 164 617Q161 625 163 633Q165 641 163 646Q161 651 164 656.50Q167 662 165 668Q163 674 166.50 676.50Q170 679 166 686Q161 698 170.50 709Q180 720 183 725Q186 730 191.50 727.50Q197 725 202.50 727Q208 729 214 731Q232 737 238 733Q244 728 244 721Q251 722 256 717.50Q261 713 264 694Q270 666 261.50 635.50Q253 605 254 585.50Q255 566 250 549Q245 532 244.50 517.50Q244 503 244 488Q241 426 196 444Q176 453 174 469Q172 483 172 508Z"  horiz-adv-x="283" vert-adv-y="1024"  />

      
      <glyph glyph-name="uni23" unicode="&#x23;" d="M104 303Q108 317 109.50 325.50Q111 334 122 337.50Q133 341 134.50 362Q136 383 131 401Q112 401 92 400.50Q72 400 56 404Q19 412 22 447Q24 493 75 489Q87 488 106 488Q125 488 145 494Q181 591 177 637Q173 683 190 714Q207 745 236 745Q263 745 273 701Q284 664 272 622Q241 513 247 501Q249 498 274 499Q327 503 339 502Q382 495 388.50 502Q395 509 399.50 528.50Q404 548 407 570Q412 608 412 642Q410 659 411.50 671.50Q413 684 421.50 689.50Q430 695 434.50 702.50Q439 710 450 720Q478 746 494 738Q502 734 503.50 725Q505 716 508 708Q516 680 502 648Q493 628 490 605Q487 582 483.50 569Q480 556 478.50 537Q477 518 479 512Q482 503 508 500Q541 510 545 520Q566 529 588 510Q596 500 600.50 495.50Q605 491 604.50 477.50Q604 464 596.50 457Q589 450 576 438Q552 419 528 426Q523 428 513 428Q503 428 492 427Q466 425 455 422Q444 393 441 369Q438 345 431 328Q424 311 429 306.50Q434 302 446.50 302Q459 302 472.50 304Q486 306 500 308Q535 311 545.50 303.50Q556 296 556 276Q556 256 544.50 245Q533 234 517 229.50Q501 225 475 225L438 225Q416 225 412 219.50Q408 214 402 179.50Q396 145 383.50 108Q371 71 367 52.50Q363 34 358.50 21Q354 8 348-2Q332-24 312-17Q265-3 299 75Q339 164 334 219Q332 236 274 236Q222 236 204 230.50Q186 225 177.50 209Q169 193 172 182.50Q175 172 169 148Q163 124 154.50 110.50Q146 97 141.50 83.50Q137 70 132.50 55.50Q128 41 124 27.50Q120 14 112 2Q91-27 63-18Q38-10 34 29Q32 50 39.50 63.50Q47 77 49 91Q51 105 55.50 117Q60 129 64 144Q72 178 77 191Q86 211 90 229Q66 224 45 221Q24 218 13.50 224.50Q3 231 1 241.50Q-1 252 2 263Q8 290 27 296Q61 309 104 303M191 301Q219 316 246 301Q263 289 278 290Q293 291 311.50 299Q330 307 345 307L373 411Q357 423 340 423Q294 423 247 423Q226 422 214 407Q209 400 201 355.50Q193 311 191 301Z"  horiz-adv-x="600" vert-adv-y="1024"  />

      
      <glyph glyph-name="uni24" unicode="&#x24;" d="M152 670Q154 686 154 696Q132 739 169 749Q191 753 212 743Q252 725 258 705Q260 697 258 685Q256 673 254 659Q274 650 287.50 649.50Q301 649 311.50 644.50Q322 640 327 635Q332 630 335 624Q338 618 340.50 611.50Q343 605 347.50 598.50Q352 592 353 585.50Q354 579 354 573L354 562Q354 556 357.50 548Q361 540 358.50 524Q356 508 353 504Q343 491 322.50 489Q302 487 298.50 481.50Q295 476 297 471Q288 462 276 452Q248 457 241 462Q226 473 224 501Q218 536 191 541Q155 549 132 508Q129 501 125 487.50Q121 474 130 458Q139 442 142.50 435Q146 428 149 423Q154 414 166 409Q178 404 183.50 399Q189 394 193.50 389.50Q198 385 202.50 380.50Q207 376 222 370Q267 351 275 323Q299 311 306 300Q313 289 318 275Q330 245 318 186Q315 168 310 140.50Q305 113 296.50 100Q288 87 263 92Q253 85 242.50 74Q232 63 218 56Q220 44 220 30Q220 16 210 6Q188-16 172-2Q164 5 162.50 11.50Q161 18 160 35L159 48Q142 50 125.50 56Q109 62 106.50 75.50Q104 89 100.50 93.50Q97 98 92 100.50Q87 103 80.50 106Q74 109 65.50 117Q57 125 53 132.50Q49 140 47.50 147.50Q46 155 46 162.50Q46 170 43 182.50Q40 195 38 206Q36 217 46 228Q70 252 88.50 246.50Q107 241 114.50 229.50Q122 218 126.50 201.50Q131 185 132.50 175.50Q134 166 136 158Q140 143 161 141Q182 139 194.50 145.50Q207 152 208 184Q209 216 205 239Q201 262 172 275Q152 283 148 290Q144 297 140 300Q136 303 124.50 305.50Q113 308 107 313Q101 318 96 324Q80 344 70 350.50Q60 357 55 362Q50 367 46.50 372Q43 377 40 382Q37 387 31 393Q16 408 12 469Q11 485 9.50 500.50Q8 516 14 536.50Q20 557 20.50 569.50Q21 582 24.50 587Q28 592 32 596Q47 607 52 616Q57 625 64.50 628Q72 631 81.50 637.50Q91 644 98 646.50Q105 649 112 656Q129 670 152 670Z"  horiz-adv-x="370" vert-adv-y="1024"  />

      
      <glyph glyph-name="uni25" unicode="&#x25;" d="M472 737Q487 733 500 718Q513 703 514.50 681.50Q516 660 509 648.50Q502 637 492 629.50Q482 622 473 616.50Q464 611 461.50 604.50Q459 598 460 591Q461 584 461 576Q461 557 445 541L432 524Q426 517 422 510.50Q418 504 410 496Q388 474 381 457.50Q374 441 363 428.50Q352 416 335.50 393.50Q319 371 310 353.50Q301 336 286.50 323.50Q272 311 268.50 293.50Q265 276 262 264Q256 234 232 212Q210 190 199 115Q188 36 148-6Q132-23 111-24.50Q90-26 77-18.50Q64-11 60 2Q50 30 76 69Q83 80 84.50 88Q86 96 95 105Q104 114 109 116.50Q114 119 116 131Q118 143 128 153Q138 163 142 181.50Q146 200 155 210.50Q164 221 169 236.50Q174 252 181.50 258.50Q189 265 197 278.50Q205 292 207.50 297.50Q210 303 212 308Q218 321 230 337Q242 353 250 367.50Q258 382 265 393Q279 424 287.50 435Q296 446 307 458.50Q318 471 330 486Q359 524 370 554Q381 588 416 678Q400 694 373 683Q363 680 350.50 674Q338 668 326 662Q294 648 289 647.50Q284 647 275 647Q266 647 256 649Q259 633 258 623.50Q257 614 259 605.50Q261 597 258 583Q255 569 257.50 558Q260 547 253 531Q246 515 241 498.50Q236 482 226.50 469.50Q217 457 207.50 446.50Q198 436 189 427.50Q180 419 172.50 406.50Q165 394 144.50 385Q124 376 101.50 379Q79 382 63 393Q47 404 36 419Q10 452 10 480.50Q10 509 12 530.50Q14 552 28 575Q10 685 98 736Q128 754 149 752Q208 748 234 705Q255 695 280 701.50Q305 708 327 716.50Q349 725 370 733Q415 751 422 755Q429 759 444 755Q459 751 472 737M74.50 516.50Q74.50 516.50 76.75 507.25Q79 498 93.50 481.50Q108 465 121 467Q134 469 146 483Q158 497 168 515Q199 571 178 588Q162 602 158.50 620Q155 638 148 646Q134 659 128 648Q126 644 121.50 633Q117 622 105 605.50Q93 589 88 575Q83 561 76.50 548Q70 535 74.50 516.50M477.50 350Q477.50 350 485.25 348Q493 346 497 346.50Q501 347 511.50 344.50Q522 342 534 326.50Q546 311 547.50 287Q549 263 550.50 252Q552 241 553 230Q555 210 551.50 176.50Q548 143 536 113.50Q524 84 508 58Q472 0 438-8Q386-17 336 8Q325 13 321 23Q317 33 308.50 41.50Q300 50 297 61.50Q294 73 292 86Q290 99 289 112Q288 125 286.50 135.50Q285 146 288 155.50Q291 165 295.50 172.50Q300 180 305 187Q310 194 315 207Q320 220 336.50 237Q353 254 364 269Q375 284 380.50 294Q386 304 392 313Q406 334 427 341Q462 354 477.50 350M454 243Q443 244 435.50 239Q428 234 416 226Q404 218 397.50 218Q391 218 388 210Q385 202 377.50 200.50Q370 199 366 187Q362 175 360.50 152.50Q359 130 367 116Q370 108 370.50 102.50Q371 97 372 93Q376 85 390 80Q408 74 434 101Q459 128 459 146Q459 152 462.50 161.50Q466 171 470 182Q483 225 454 243Z"  horiz-adv-x="563" vert-adv-y="1024"  />

      
      <glyph glyph-name="uni26" unicode="&#x26;" d="M247 386Q311 287 326 287Q337 287 353 308Q382 346 386 372Q394 428 426 430Q443 432 452 417Q461 402 465.50 379.50Q470 357 472.50 342.50Q475 328 476 314Q477 282 466.50 271Q456 260 439 255Q432 244 424 231.50Q416 219 408 206Q391 179 385 162Q394 123 421 101Q443 82 448 69Q458 44 446.50 28.50Q435 13 423.50 2Q412-9 393-4Q374 1 363 3.50Q352 6 344 13Q326 29 326 73Q313 59 298 49Q283 39 276 28.50Q269 18 261 8Q253-2 243-10Q220-27 190.50-16Q161-5 143 4.50Q125 14 112 14Q99 14 90 19.50Q81 25 74 32Q53 52 34 55.50Q15 59 9 74.50Q3 90 6 104Q17 143 13 175.50Q9 208 12 229.50Q15 251 22 272Q39 321 72 344Q88 356 98 362.50Q108 369 114 373Q129 384 120 407Q115 418 109 430Q92 461 91 481Q89 508 86 514Q83 520 78.50 534Q74 548 75 564Q76 580 75 591Q73 608 79 616L87 628Q90 633 90.50 650Q91 667 99 678.50Q107 690 115 701Q118 707 122 707Q130 707 138 718Q146 729 157 733.50Q168 738 183.50 740Q199 742 216 742Q269 744 294 745Q349 747 351 707Q352 696 352 688L352 674Q378 652 379 627.50Q380 603 371 591.50Q362 580 360.50 575Q359 570 357 562.50Q355 555 352 546Q345 525 338.50 515.50Q332 506 324 496Q316 486 306 474Q275 434 247 386M232 525.50Q232 525.50 231.50 532.75Q231 540 223 542Q215 544 195 546.50Q175 549 172 537Q169 525 174 513Q181 497 186 465Q194 474 202.50 481.50Q211 489 218 496Q233 511 232 525.50M116 191.50Q116 191.50 117 174.75Q118 158 129 144Q140 130 163 115Q186 100 196.50 103.50Q207 107 212.50 113.50Q218 120 224 122Q230 124 236 126Q253 131 256 144Q262 172 226 198Q209 209 203 219.50Q197 230 195 253Q187 301 168 302Q151 302 133 264Q114 225 116 191.50Z"  horiz-adv-x="476" vert-adv-y="1024"  />

      
      <glyph glyph-name="uni27" unicode="&#x27;" d="M102 721Q119 723 122 697Q127 675 125.50 662Q124 649 117.50 627Q111 605 112 585.50Q113 566 107.50 549Q102 532 101.50 517.50Q101 503 101 488Q101 425 54 444Q34 453 32 469Q31 476 31 486L31 508Q31 536 28 547Q25 558 25 575L25 600Q25 609 21.50 617Q18 625 20 633Q22 641 20 646Q19 651 22.50 656.50Q26 662 23.50 668Q21 674 25 676.50Q29 679 25 686Q19 699 33 713Q38 720 41.50 725Q45 730 49.50 727.50Q54 725 59.50 727Q65 729 72 731Q102 740 102 721Z"  horiz-adv-x="145" vert-adv-y="1024"  />

      
      <glyph glyph-name="uni28" unicode="&#x28;" d="M193 768Q193 768 196 770.50Q199 773 205 775.50Q211 778 216.50 774Q222 770 223.50 761.50Q225 753 224 744Q222 723 205 710.50Q188 698 182.50 687Q177 676 174 673Q171 670 168 664Q161 647 158 630Q155 613 152 605.50Q149 598 146 592Q141 580 141 564.50Q141 549 139.50 542Q138 535 135.50 530.50Q133 526 130 521Q121 509 117 487Q112 461 104 430Q96 400 116 358Q123 342 119 333Q115 324 112 314Q106 288 116.50 258.50Q127 229 129 218Q131 207 132 201Q135 186 144 168.50Q153 151 153 137.50Q153 124 159 117.50Q165 111 165.50 100Q166 89 176 79.50Q186 70 189.50 57.50Q193 45 198 40.50Q203 36 208 29Q213 22 216.50 14Q220 6 220-2.50Q220-11 214-17Q201-30 168-1Q161 5 156.50 7.50Q152 10 146 23.50Q140 37 129 46.50Q118 56 115.50 69Q113 82 107 86.50Q101 91 98.50 97Q96 103 94 109Q89 125 83 128Q77 131 74 147Q67 176 61.50 183.50Q56 191 56 203.50Q56 216 52 224.50Q48 233 48.50 243.50Q49 254 46 262Q41 273 36 310Q34 324 34 334Q34 344 30.50 355.50Q27 367 27 388Q27 409 26.50 419Q26 429 27.50 438.50Q29 448 32 459Q38 486 36 501Q33 527 53 564Q58 574 64 582Q77 603 84 625Q102 677 112 682Q115 699 130 715Q153 741 164 746Q175 751 181 757Q187 763 193 768Z"  horiz-adv-x="230" vert-adv-y="1024"  />

      
      <glyph glyph-name="uni29" unicode="&#x29;" d="M206 447Q207 443 207 420.50Q207 398 206 368Q205 295 195 262Q180 213 169.50 174.50Q159 136 152 124Q145 112 142.50 98.50Q140 85 130 79.50Q120 74 115.50 62Q111 50 103 41Q95 32 86 23Q65 2 51.50-4.50Q38-11 28.50-20Q19-29 10-18Q-8 2 44 56Q92 107 85 129Q81 137 86.50 142Q92 147 96 153.50Q100 160 100.50 164.50Q101 169 105 171Q119 181 116 210Q115 221 118 233Q123 253 121 268Q119 283 124.50 298Q130 313 126 323Q122 333 123.50 349Q125 365 136 370Q138 392 139.50 413.50Q141 435 135 445Q129 455 128 461Q127 467 126 472Q125 485 119.50 495Q114 505 116 518Q119 537 105.50 560Q92 583 90 591.50Q88 600 86 610.50Q84 621 81 632Q73 662 62 672.50Q51 683 48 690Q45 697 41 704.50Q37 712 27 718Q17 724 17 729Q17 734 13 741.50Q9 749 10.50 757.50Q12 766 18 768Q24 770 32 770Q51 768 58 757.50Q65 747 73.50 742Q82 737 84 726Q86 715 98.50 704.50Q111 694 115.50 683Q120 672 128.50 666.50Q137 661 140.50 646.50Q144 632 151 625Q158 618 160.50 602.50Q163 587 164.50 569Q166 551 179 543Q192 532 194 505Q195 499 197.50 496.50Q200 494 201.50 487.50Q203 481 203.50 473.50Q204 466 204.50 458.50Q205 451 206 447Z"  horiz-adv-x="232" vert-adv-y="1024"  />

      
      <glyph glyph-name="uni2a" unicode="&#x2a;" d="M125 413Q97 396 82 384Q67 372 52 373.50Q37 375 27 394Q23 401 23 413Q23 425 28 438Q40 467 74 478Q102 488 132 510Q114 521 96.50 530.50Q79 540 63 549Q26 570 17 583Q4 603 14 626Q24 651 53 647.50Q82 644 95 634Q108 624 116 612Q124 600 128.50 589.50Q133 579 138.50 575Q144 571 150.50 571.50Q157 572 165 571Q166 590 166 604.50Q166 619 167 648.50Q168 678 166 697.50Q164 717 172 728Q189 753 222 733Q244 720 249 697Q254 674 250 654Q243 618 247 589Q280 610 308 632Q336 654 351 656.50Q366 659 377.50 655Q389 651 396 642Q414 622 399 597.50Q384 573 369.50 565.50Q355 558 340.50 556Q326 554 314.50 554.50Q303 555 296.50 551Q290 547 288 539.50Q286 532 276 521L303 503Q315 495 339.50 478.50Q364 462 381.50 453Q399 444 404 429Q411 416 401.50 404Q392 392 381 387Q370 382 357 382Q326 380 300 406Q282 424 253 440Q255 403 257.50 371Q260 339 254.50 325.50Q249 312 239.50 304Q230 296 218 294Q191 291 176 322Q156 362 188 411Q194 421 194 427Q194 433 191 437Q188 441 185 447Q171 439 159.50 432Q148 425 125 413Z"  horiz-adv-x="422" vert-adv-y="1024"  />

      
      <glyph glyph-name="uni2b" unicode="&#x2b;" d="M238 389L361 396Q377 396 387 395Q404 393 406 367Q407 341 397 329.50Q387 318 375 318Q367 312 353 313Q339 314 327 315.50Q315 317 310 316Q305 315 302 314Q295 312 283 318Q271 324 254 319Q250 288 253 266Q256 244 255.50 239Q255 234 254 230Q252 222 257 208Q270 174 250 155Q241 147 224 143.50Q207 140 194.50 144.50Q182 149 174 159Q157 179 159 207Q160 226 159 230Q156 235 162 247Q169 265 163 312Q135 299 130 302Q125 305 121 304.50Q117 304 114 302Q104 299 97.50 302Q91 305 84 305L56 303Q47 303 34 309.50Q21 316 13 316Q8 330 2 347Q-4 364 1.50 373Q7 382 14 386Q21 390 30 392Q46 396 56 395.50Q66 395 73.50 392.50Q81 390 88 388Q107 381 114 384.50Q121 388 123.50 388Q126 388 130 387Q134 386 139.50 384.50Q145 383 156 383Q160 412 160 437.50Q160 463 158 483.50Q156 504 154 517.50Q152 531 152 537Q152 561 180 572Q189 575 206.50 573Q224 571 237 556.50Q250 542 249.50 520.50Q249 499 248 484Q247 469 245 452Q243 435 241 418.50Q239 402 238 389Z"  horiz-adv-x="411" vert-adv-y="1024"  />

      
      <glyph glyph-name="uni2c" unicode="&#x2c;" d="M135 9Q135 9 136.50 4.50Q138 0 134.50-4Q131-8 131.50-19.50Q132-31 128-37Q124-43 122-51Q120-59 117-61.50Q114-64 111-73Q107-81 101-81.50Q95-82 94-90Q92-105 67-105Q41-105 38-88Q37-82 46-69.50Q55-57 61-54Q67-51 75.50-47Q84-43 84.50-34Q85-25 79-13Q71-18 63-16Q55-14 45.50-16Q36-18 31-12Q26-6 15-2Q3 3 5 27Q9 75 27 84Q37 88 42 91.50Q47 95 50 97Q53 99 55 99Q57 99 64.50 97Q72 95 80 99Q88 103 90.50 99.50Q93 96 97.50 95.50Q102 95 106 94Q118 90 121.50 79.50Q125 69 126.50 67Q128 65 129 64Q130 62 132 49Q133 40 132.50 35.50Q132 31 132 28L132 22Q132 18 135 9Z"  horiz-adv-x="152" vert-adv-y="1024"  />

      
      <glyph glyph-name="uni2d" unicode="&#x2d;" d="M14 309Q-5 328 12 360Q32 400 80 389Q114 381 137.50 385.50Q161 390 168 386Q175 382 180.50 383Q186 384 194 386Q218 392 246 392Q265 392 283.50 393.50Q302 395 318 396Q357 398 371 392Q391 380 393 362Q397 328 375 315Q353 302 338.50 303.50Q324 305 312.50 311Q301 317 292.50 324Q284 331 278.50 331Q273 331 269 328Q265 325 260 321Q247 312 228 312Q209 312 203 310.50Q197 309 192 306Q181 301 164 301Q146 301 133 301Q115 301 87 302.50Q59 304 42.50 302Q26 300 14 309Z"  horiz-adv-x="399" vert-adv-y="1024"  />

      
      <glyph glyph-name="uni2e" unicode="&#x2e;" d="M7.50 18Q7.50 18 5.75 21.50Q4 25 5.50 33Q7 41 21.50 54Q36 67 58.50 79Q81 91 119 86Q137 84 148 65Q156 49 153.50 36.50Q151 24 144 15.50Q137 7 128 0Q110-13 96-15Q82-17 76.50-23.50Q71-30 58.50-27Q46-24 42.50-14.50Q39-5 31-2Q23 1 17 6Q11 11 7.50 18Z"  horiz-adv-x="169" vert-adv-y="1024"  />

      
      <glyph glyph-name="uni2f" unicode="&#x2f;" d="M288 745Q306 758 319 752Q332 746 338.50 718.50Q345 691 329 658Q313 625 305 615.50Q297 606 290 598Q275 581 266.50 551Q258 521 253 511Q248 501 244 493Q232 473 222 429Q211 383 196.50 354.50Q182 326 173.50 309Q165 292 157.50 267.50Q150 243 142.50 224Q135 205 129 189Q114 149 114 129Q114 96 97 63Q65 1 43-6Q36-8 21.50-5.50Q7-3 0 16Q-15 62 15 115Q32 143 38 165Q44 187 49.50 199.50Q55 212 59.50 227Q64 242 68 258Q78 296 87 314Q93 326 103 344Q113 362 123 384Q146 435 154 472Q162 509 168 518.50Q174 528 181 525Q192 581 221 616Q233 631 236 648Q251 719 288 745Z"  horiz-adv-x="345" vert-adv-y="1024"  />

      
      <glyph glyph-name="uni30" unicode="&#x30;" d="M161.50 733Q161.50 733 169.75 734.50Q178 736 196 738Q214 740 236 748Q258 756 276 759Q294 762 315 756.50Q336 751 347 743Q358 735 366 726.50Q374 718 379.50 710Q385 702 396 696Q420 682 418 654Q418 648 421.50 640Q425 632 429 622Q439 598 437 575.50Q435 553 439.50 531Q444 509 448 486Q458 428 445.50 387Q433 346 425.50 314Q418 282 419.50 259.50Q421 237 417.50 215Q414 193 407 170Q390 117 364 94Q355 87 344.50 68.50Q334 50 320 30Q283-19 231.50-19Q180-19 145.50 18Q111 55 97 117Q92 138 82 154Q64 183 54 206Q37 249 48 320Q50 330 50 340Q50 361 32 393Q-1 454 29 528Q35 544 36.50 557Q38 570 40 582Q43 611 53.50 624Q64 637 64.50 644Q65 651 72 660Q79 669 87.50 679Q96 689 106.50 704Q117 719 131 724.50Q145 730 161.50 733M248.50 519.50Q248.50 519.50 247.75 517.25Q247 515 246.50 512Q246 509 242.50 506Q239 503 235 503L228 503Q218 503 213 497Q202 481 191 462.50Q180 444 176 418Q170 372 180 351Q189 332 187 308Q185 284 185.50 272Q186 260 187.50 251Q189 242 192 234.50Q195 227 198 218.50Q201 210 205.50 198.50Q210 187 216 176Q233 150 256 152Q278 154 280 211Q280 241 284 259L292 289Q301 329 294.50 354.50Q288 380 289.50 390.50Q291 401 292 412Q295 444 286.50 460Q278 476 275.50 485.50Q273 495 271 504Q267 522 258 524Q250 524 248.50 519.50Z"  horiz-adv-x="468" vert-adv-y="1024"  />

      
      <glyph glyph-name="uni31" unicode="&#x31;" d="M262 433Q270 425 270 390Q270 355 269.50 339Q269 323 253 307Q249 271 252 242Q252 230 251 219.50Q250 209 250 200Q252 183 268 173Q299 156 283 77Q279 54 279 36.50Q279 19 277.50 12.50Q276 6 268-2.50Q260-11 252-12.50Q244-14 235-11L214-4Q202 0 184 1Q158 2 142.50-7Q127-16 119-19.50Q111-23 100.50-22Q90-21 82-15Q74-9 68-2Q57 13 57 21Q57 29 60.50 43Q64 57 58 89.50Q52 122 57.50 137Q63 152 94 164Q113 205 103 271Q99 303 98 345Q97 387 95.50 422.50Q94 458 93.50 474Q93 490 89 501Q81 522 53 527Q40 529 31.50 530Q23 531 16 541Q4 558 18 584Q25 596 33.50 609.50Q42 623 48.50 637.50Q55 652 65 669.50Q75 687 88 702Q120 737 156 737Q191 737 204 741Q227 748 233 748Q259 748 277 730Q286 721 284 698.50Q282 676 279.50 656Q277 636 273.50 614Q270 592 269 574.50Q268 557 267 544Q266 531 265.50 518Q265 505 263 495Q275 491 262 433Z"  horiz-adv-x="318" vert-adv-y="1024"  />

      
      <glyph glyph-name="uni32" unicode="&#x32;" d="M369 300Q356 291 346.50 271.50Q337 252 325.50 237.50Q314 223 300 209.50Q286 196 270 182Q233 147 215 115Q220 104 240 103Q247 102 252 104Q262 111 277.50 112Q293 113 300 113.50Q307 114 310 114Q319 112 330 112Q341 118 356.50 119.50Q372 121 381.50 117.50Q391 114 395 117.50Q399 121 407 118Q415 115 418.50 102Q422 89 423 74Q425 37 418 27Q407 22 406 15Q405 8 397 3.50Q389-1 383-0.50Q377 0 372 2Q357 8 348 6.50Q339 5 328 0.50Q317-4 306.50-2.50Q296-1 284.50 1Q273 3 260 4.50Q247 6 233.50 6Q220 6 200 0.50Q180-5 162-12.50Q144-20 122.50-19Q101-18 90-12.50Q79-7 71.50 0.50Q64 8 59 17.50Q54 27 44 39Q34 51 27.50 69Q21 87 39.50 106.50Q58 126 68.50 142.50Q79 159 86 172.50Q93 186 98.50 197Q104 208 113.50 220.50Q123 233 134 243.50Q145 254 156 264Q178 284 190 309Q197 324 207.50 336Q218 348 228 362Q250 393 252 427.50Q254 462 250 476.50Q246 491 238 496Q222 507 203.50 476.50Q185 446 163 435Q141 424 128 438Q115 452 106 461Q97 470 77 471.50Q57 473 36.50 480Q16 487 12 508Q5 548 22 591.50Q39 635 70 671Q101 707 139.50 730.50Q178 754 211 754Q244 754 268 745Q292 736 308 710Q315 711 333 700Q351 689 362 667Q369 665 377 655Q388 640 388 632Q393 629 400 616Q412 595 412 583Q419 580 424 536Q426 520 426 497Q426 474 421 446Q425 435 425 411.50Q425 388 417 362Q400 320 369 300Z"  horiz-adv-x="446" vert-adv-y="1024"  />

      
      <glyph glyph-name="uni33" unicode="&#x33;" d="M336 370Q402 332 429 271Q438 251 438 231Q438 206 420.50 153Q403 100 397 71.50Q391 43 377.50 33Q364 23 353 21Q342 19 332 19L312 19Q290 19 275 8L250-9Q231-23 205.50-23Q180-23 172.50-19.50Q165-16 160.50-12Q156-8 150.50-4Q145 0 129 1.50Q113 3 98 14.50Q83 26 72 42Q47 77 51 108Q53 134 79 142Q111 153 141 118Q165 91 189 91Q204 91 224 106Q244 121 256 134.50Q268 148 273 174Q277 186 280 199.50Q283 213 267 229Q250 245 240 245Q230 245 215 237Q200 229 188 227Q176 225 163 228Q134 236 116 273Q97 307 117 334Q130 350 148.50 355Q167 360 182 372Q197 384 208 400Q237 440 221 469Q211 488 199.50 488Q188 488 177 484Q166 480 161 475.50Q156 471 152 466Q142 454 130.50 452.50Q119 451 113.50 454.50Q108 458 104 464Q92 478 71 478.50Q50 479 31.50 486Q13 493 7.50 519Q2 545 10 575.50Q18 606 35 636Q75 706 130 729Q164 766 221 754Q263 774 302 738Q335 710 340 673Q366 657 382 631.50Q398 606 404 568Q410 530 406.50 507Q403 484 396 466Q387 443 373 422Q359 401 350.50 392.50Q342 384 336 370Z"  horiz-adv-x="438" vert-adv-y="1024"  />

      
      <glyph glyph-name="uni34" unicode="&#x34;" d="M382 720L383 682Q383 663 375.50 642Q368 621 372.50 597Q377 573 381 556Q388 525 382 492Q375 453 369 399Q358 315 370 300Q374 295 387 293Q411 288 420.50 275.50Q430 263 431.50 245Q433 227 430 210Q423 171 409 161Q403 158 391 160.50Q379 163 373 157.50Q367 152 363.50 139.50Q360 127 358 111Q356 87 359 56Q362 11 349-10Q342-20 315-21Q264-24 251-2Q247 4 247.50 12.50Q248 21 248.50 29.50Q249 38 249.50 46.50Q250 55 246 62Q243 69 239 71.50Q235 74 232 77Q225 84 225 106Q225 139 220 150Q209 169 175 169Q146 169 132 161Q104 145 88.50 143Q73 141 58.50 141Q44 141 33 146Q8 157 11.50 191Q15 225 12.50 250.50Q10 276 6.50 296Q3 316 0.50 330.50Q-2 345 3 353Q8 361 10 367.50Q12 374 14 379Q18 393 27 401Q56 437 74 469Q67 484 68 499.50Q69 515 91 538Q126 576 146 634Q169 704 186 738Q198 759 221 748.50Q244 738 275 736.50Q306 735 327.50 745Q349 755 366 750Q383 745 382 720M225 295Q224 312 227 323.50Q230 335 229 346.50Q228 358 229 369.50Q230 381 230 393Q232 422 220 442Q218 437 216.50 432.50Q215 428 211.50 415.50Q208 403 196 382.50Q184 362 179 345.50Q174 329 169.50 322.50Q165 316 162 310Q154 299 158.50 290.50Q163 282 184 286.50Q205 291 225 295Z"  horiz-adv-x="432" vert-adv-y="1024"  />

      
      <glyph glyph-name="uni35" unicode="&#x35;" d="M33 596Q33 596 30 605Q27 614 30.50 637.50Q34 661 33.50 689.50Q33 718 51 729.50Q69 741 85.50 740Q102 739 123 736Q183 726 224 733.50Q265 741 292 747Q319 753 340 755Q384 759 398 742Q412 725 414 700Q416 675 413.50 648Q411 621 407.50 596Q404 571 408 546Q414 499 408 467Q404 453 396.50 440.50Q389 428 374.50 429.50Q360 431 353 435.50Q346 440 339 445Q322 458 303 452Q261 440 242 465Q223 484 194 473Q187 470 183 466Q169 442 170 376Q171 360 175.50 354.50Q180 349 189 348Q198 347 210 348Q248 353 262 352.50Q276 352 296.50 347.50Q317 343 338 335Q359 327 373.50 314Q388 301 384 288Q380 275 383 267.50Q386 260 392 252Q410 228 417.50 207Q425 186 422 157Q419 128 404 110Q389 92 380.50 78Q372 64 366 52Q349 23 336 9.50Q323-4 299.50-11Q276-18 251-18Q211-19 185.50-12Q160-5 153.50-6.50Q147-8 140-8Q123-8 114 15Q104 37 84 42Q75 44 66 46Q42 50 36 76Q28 111 46 142Q56 157 72 164Q88 171 100 171Q112 171 120 166Q135 158 146 135Q168 130 179 115Q187 104 203 103Q233 100 253 118Q277 140 280 145Q285 153 285 164Q285 175 280 187.50Q275 200 264 212Q221 265 148 233Q136 228 127 224Q118 220 110 221.50Q102 223 93.50 231Q85 239 69.50 250Q54 261 46 266Q38 271 34.50 282.50Q31 294 39 306.50Q47 319 46.50 328.50Q46 338 46 351Q46 364 46 379Q44 418 33.50 432.50Q23 447 21 459Q19 471 22.50 487.50Q26 504 29.50 516Q33 528 36 540.50Q39 553 39 565.50Q39 578 33 596Z"  horiz-adv-x="438" vert-adv-y="1024"  />

      
      <glyph glyph-name="uni36" unicode="&#x36;" d="M159 337Q160 317 164 312.50Q168 308 175.50 313Q183 318 194 326Q225 348 241 352Q259 356 266 362Q278 371 294.50 371Q311 371 327 364.50Q343 358 357 332Q366 316 376 307Q393 292 399 272Q403 259 407 247.50Q411 236 412 224Q419 172 383 92Q370 62 358 51.50Q346 41 340.50 30.50Q335 20 328 10Q313-15 299.50-17Q286-19 280-18.50Q274-18 268-16Q254-13 236-15Q179-22 160 4Q152 17 146.50 21Q141 25 128 28Q90 37 62 134Q52 172 47 177Q44 180 38 184.50Q32 189 27 198Q9 228 22 278Q28 298 26.50 309.50Q25 321 22 338Q18 355 18 368.50Q18 382 20 394Q23 420 19.50 430Q16 440 13.50 448.50Q11 457 10 466Q9 485 24.50 512Q40 539 44.50 559Q49 579 53 596.50Q57 614 65 632.50Q73 651 86 670Q116 716 151 730Q170 738 183.50 744.50Q197 751 208 754Q230 762 258 751Q284 749 292 740Q300 731 301 726Q308 735 317.50 726Q327 717 331 710.50Q335 704 338 702Q341 700 344 698Q352 694 357 681Q360 672 373 655Q393 626 397 610.50Q401 595 402 586Q404 568 396 554Q408 541 408 528.50Q408 516 406 508Q398 478 381 478Q361 478 344.50 476.50Q328 475 318.50 463Q309 451 296.50 446.50Q284 442 272 442Q260 442 250 448Q240 454 239 466Q237 492 220 494Q203 496 183 467Q155 423 159 337M208 176Q215 155 237 147Q254 139 271 162Q286 177 290 192Q295 219 275 237Q267 245 258.50 253Q250 261 238 257Q186 239 208 176Z"  horiz-adv-x="424" vert-adv-y="1024"  />

      
      <glyph glyph-name="uni37" unicode="&#x37;" d="M28 609Q4 616 12 641Q16 652 22 666Q36 700 34 728Q42 733 46.50 738.50Q51 744 61.50 744Q72 744 78 741.50Q84 739 91 736Q110 728 132 728Q190 728 236 737.50Q282 747 301 747.50Q320 748 337 744Q376 737 387 712Q394 698 390.50 682.50Q387 667 388.50 651Q390 635 391 615Q392 595 392 572Q390 520 385.50 502.50Q381 485 371 464.50Q361 444 350 420Q320 353 316 326.50Q312 300 311.50 277Q311 254 304 240.50Q297 227 283.50 211Q270 195 267.50 173Q265 151 259 134.50Q253 118 251.50 102Q250 86 249.50 71.50Q249 57 242.50 44.50Q236 32 226 27Q216 22 213.50 17.50Q211 13 208.50 7.50Q206 2 202-4Q179-39 120 3Q106 12 102 24Q98 36 96 44Q90 63 90 71.50Q90 80 95.50 96Q101 112 100 129Q99 146 105.50 162.50Q112 179 114 196Q119 237 133.50 260.50Q148 284 159 306Q170 328 182 353Q228 453 221 472Q218 480 202.50 476.50Q187 473 175 473L152 473Q128 473 124.50 471Q121 469 117 463Q113 457 106 451Q90 435 69 437Q39 439 33 467Q9 481 27 537Q22 551 24 571Q26 591 28 609Z"  horiz-adv-x="407" vert-adv-y="1024"  />

      
      <glyph glyph-name="uni38" unicode="&#x38;" d="M418 540Q429 519 420 488Q423 481 423 470.50Q423 460 420 450Q414 424 404 420.50Q394 417 389 404.50Q384 392 375 375.50Q366 359 360.50 354Q355 349 355 344.50Q355 340 363 337.50Q371 335 380 324Q389 313 390 307Q391 301 391 295Q391 280 396.50 271.50Q402 263 403 250.50Q404 238 403 225Q400 188 406 163.50Q412 139 405 119.50Q398 100 372 82Q356 70 351 62Q344 48 330 38Q321 32 309 21Q297 10 284 0Q251-26 225.50-26Q200-26 178.50-23.50Q157-21 147-7Q142-1 136 3Q130 7 124 11Q78 42 78 90Q78 96 73 106Q68 116 61 115Q40 112 34 134Q29 149 31 157.50Q33 166 37.50 179Q42 192 44 212Q50 255 69 281.50Q88 308 91 332.50Q94 357 77 369Q65 378 64 386L61 400Q60 405 52.50 411.50Q45 418 41.50 426Q38 434 36 441.50Q34 449 32.50 456Q31 463 25.50 473Q20 483 20.50 493.50Q21 504 17 523Q12 542 17 561.50Q22 581 28 603Q33 625 31.50 633.50Q30 642 31 652Q33 671 63 705Q79 719 89.50 720Q100 721 106.50 720.50Q113 720 123 722.50Q133 725 145.50 730.50Q158 736 172 728Q202 735 219 748Q223 750 236 752.50Q249 755 256 754.50Q263 754 270.50 754Q278 754 288 749Q324 730 331.50 719.50Q339 709 345.50 704Q352 699 358 694Q373 681 375 669Q378 669 385 661Q392 653 398 642Q414 613 410 604Q414 597 417 577.50Q420 558 418 540M243 423.50Q243 423.50 245.50 429.25Q248 435 251 448Q254 461 258 479Q262 497 255 509Q248 521 240 521Q232 521 225.50 516.50Q219 512 212.50 509.50Q206 507 202 506.50Q198 506 195 506Q176 502 170 476Q165 451 172.50 436.50Q180 422 186 414Q199 398 211 398Q223 398 230.50 405Q238 412 243 423.50M244 179.50Q244 179.50 249 184.75Q254 190 254 207.50Q254 225 248.50 232Q243 239 235 245Q227 251 218 259Q199 262 199 237Q199 229 194 224Q184 214 185 204Q186 194 180.50 181.50Q175 169 180.50 158Q186 147 192 144.50Q198 142 206 140Q216 155 231 157Q234 169 244 179.50Z"  horiz-adv-x="439" vert-adv-y="1024"  />

      
      <glyph glyph-name="uni39" unicode="&#x39;" d="M416 570L411 519Q411 510 416 501L425 488Q436 472 430.50 418Q425 364 416 324Q397 242 369.50 195.50Q342 149 328 114Q314 79 309 69.50Q304 60 290 49Q276 38 268.50 38Q261 38 256.50 39.50Q252 41 247 40Q234 37 223.50 21Q213 5 202-8.50Q191-22 176-22Q161-22 156-19Q151-16 146-12Q134-3 119-2.50Q104-2 97 6.50Q90 15 89 26Q87 54 110.50 68Q134 82 149.50 92.50Q165 103 164.50 121.50Q164 140 173.50 152Q183 164 196 179Q209 194 221 213.50Q233 233 243 253Q268 303 255 312Q248 317 238 312Q228 307 215 298Q162 264 123 283Q98 295 84 333Q77 349 69.50 368Q62 387 51 392Q30 405 16 443Q0 488 22 542Q38 578 39.50 610Q41 642 58 670Q75 698 91.50 712Q108 726 128.50 734.50Q149 743 172 748Q253 766 288 744Q299 736 306 728Q331 728 344.50 721.50Q358 715 371 696.50Q384 678 394 656Q416 606 416 570M198 525.50Q198 525.50 195.50 520.75Q193 516 190.50 505Q188 494 191 481.50Q194 469 198.50 455.50Q203 442 219 434Q236 427 243 431Q250 435 261 440Q272 447 278 466Q288 503 266 532Q253 548 237 548Q221 548 212 541.50Q203 535 198 525.50Z"  horiz-adv-x="446" vert-adv-y="1024"  />

      
      <glyph glyph-name="uni3a" unicode="&#x3a;" d="M44 347.50Q44 347.50 50.50 350.25Q57 353 68.50 349Q80 345 86 348Q92 351 98.50 352Q105 353 112 352Q128 350 132 342.50Q136 335 141.50 326Q147 317 144 306Q141 295 140 288Q139 281 133.50 274.50Q128 268 120.50 261Q113 254 104 247Q82 231 63.50 232Q45 233 39 241.50Q33 250 25 256Q7 269 15 297.50Q23 326 27 334Q31 342 44 347.50M7.50 18Q7.50 18 5.75 21.50Q4 25 5.50 33Q7 41 21.50 54Q36 67 58.50 79Q81 91 119 86Q137 84 148 65Q156 49 153.50 36.50Q151 24 144 15.50Q137 7 128 0Q110-13 96-15Q82-17 76.50-23.50Q71-30 58.50-27Q46-24 42.50-14.50Q39-5 31-2Q23 1 17 6Q11 11 7.50 18Z"  horiz-adv-x="169" vert-adv-y="1024"  />

      
      <glyph glyph-name="uni3b" unicode="&#x3b;" d="M138 9Q138 9 139.50 4.50Q141 0 137.50-4Q134-8 134.50-19.50Q135-31 131-37Q127-43 124.50-51Q122-59 119-61.50Q116-64 113.50-72.50Q111-81 104.50-81.50Q98-82 97-90Q95-105 70-105Q44-105 41-88Q40-82 49-69.50Q58-57 64-54Q70-51 78.50-46.50Q87-42 87.50-33.50Q88-25 82-13Q74-18 66-16Q58-14 48-16Q38-18 33.50-12Q29-6 18-2Q6 3 8 27Q12 75 30 84Q40 88 45 91.50Q50 95 53 97Q56 99 58.50 99Q61 99 68 97Q75 95 83 99Q91 103 93.50 99.50Q96 96 100.50 95.50Q105 95 110 94Q122 89 125 77Q129 67 131 65Q134 62 135 49Q136 40 135.50 35.50Q135 31 135 28L135 22Q135 18 138 9M35.50 349.50Q35.50 349.50 42.25 352.25Q49 355 60.50 351.50Q72 348 78.50 351Q85 354 91.50 354.50Q98 355 105 354Q121 353 125.50 345Q130 337 136 328Q142 319 138.50 307.50Q135 296 134 289Q133 282 127.50 275Q122 268 114.50 261Q107 254 97 247Q73 230 55 231.50Q37 233 30.50 241.50Q24 250 15 256Q-1 270 9 308Q14 329 18 336.50Q22 344 35.50 349.50Z"  horiz-adv-x="155" vert-adv-y="1024"  />

      
      <glyph glyph-name="uni3c" unicode="&#x3c;" d="M43.50 277Q43.50 277 35.25 282Q27 287 16.50 298.50Q6 310 5 322.50Q4 335 17 356Q30 377 52.50 391Q75 405 84 409Q93 413 99.50 414.50Q106 416 113 417Q120 418 133.50 423.50Q147 429 159.50 437.50Q172 446 182.50 454Q193 462 203 470Q213 478 224 483Q322 528 348 547Q374 566 385.50 568Q397 570 406 564Q426 552 418 510Q411 473 378 448Q358 432 341.50 428.50Q325 425 310 420.50Q295 416 278 398Q240 361 200 359Q164 359 136 342Q118 332 132 314Q144 298 162.50 290Q181 282 196 282Q221 282 284 249Q295 242 308 240L329 237Q336 236 345 231Q361 235 375 227Q400 213 400 203Q422 184 423 167Q424 150 421.50 143.50Q419 137 416 135.50Q413 134 406.50 129.50Q400 125 392 121Q384 117 371.50 121Q359 125 343 130.50Q327 136 310.50 148.50Q294 161 289 168.50Q284 176 280 178.50Q276 181 258 186.50Q240 192 216 200Q147 224 124 236Q101 248 80.50 257.50Q60 267 43.50 277Z"  horiz-adv-x="439" vert-adv-y="1024"  />

      
      <glyph glyph-name="uni3d" unicode="&#x3d;" d="M350 388L306 390Q296 390 281 384Q253 374 136 379Q101 381 80 378Q5 368 5 413Q5 428 15 441.50Q25 455 54 456.50Q83 458 108 456Q133 454 149.50 457Q166 460 172.50 460.50Q179 461 184 460Q200 459 213 461Q226 463 251 460.50Q276 458 292 459.50Q308 461 322.50 463.50Q337 466 352 466Q386 464 393 444Q403 421 394 408Q379 388 350 388M320 214L203 219Q116 219 71.50 212.50Q27 206 18.50 212.50Q10 219 7.50 233Q5 247 23 266Q41 285 83.50 289.50Q126 294 152.50 293Q179 292 194.50 292Q210 292 223.50 291Q237 290 252 290Q295 288 323 297Q373 312 393 299Q406 288 407 270Q409 235 387 224Q363 214 320 214Z"  horiz-adv-x="413" vert-adv-y="1024"  />

      
      <glyph glyph-name="uni3e" unicode="&#x3e;" d="M379 395Q379 395 393.50 386Q408 377 421.50 356Q435 335 433.50 322.50Q432 310 422 298.50Q412 287 395.50 277Q379 267 359 257.50Q339 248 318.50 237.50Q298 227 272 217.50Q246 208 222.50 200Q199 192 181 186.50Q163 181 159.50 178.50Q156 176 151 168.50Q146 161 128 148Q109 135 68 121Q55 117 47 121Q39 125 33 129.50Q27 134 23.50 135.50Q20 137 17.50 143.50Q15 150 16 167Q17 184 39 203Q39 213 52 220Q78 235 93 231Q102 236 109.50 237Q117 238 124 239Q144 242 159 250Q214 282 249 282Q267 282 284 294Q329 326 303 342Q276 359 249 360Q200 360 162 398Q144 416 129.50 420.50Q115 425 105.50 427Q96 429 84.50 433.50Q73 438 60 448Q29 470 22 510Q13 551 34 564Q52 575 76 558Q102 537 152.50 512.50Q203 488 214.50 483Q226 478 235.50 470Q245 462 256 454Q299 421 326 417Q350 413 379 395Z"  horiz-adv-x="439" vert-adv-y="1024"  />

      
      <glyph glyph-name="uni3f" unicode="&#x3f;" d="M228.50 726Q228.50 726 231.75 727Q235 728 242 730Q249 732 266.50 731.50Q284 731 294.50 721Q305 711 318 707Q331 703 335.50 693.50Q340 684 343 680.50Q346 677 350 674Q358 665 361 652Q364 639 367 633Q370 627 372 622Q377 609 376 596.50Q375 584 378 576.50Q381 569 378.50 555.50Q376 542 378 529Q380 516 372 500.50Q364 485 353.50 470.50Q343 456 341 436Q337 402 305 388Q289 380 281 367.50Q273 355 268 338.50Q263 322 260 304.50Q257 287 254 269Q249 228 250.50 216Q252 204 249 192Q246 180 240 169Q225 142 210 144Q197 144 188 142Q174 139 166 145Q149 158 144 168Q134 188 138.50 213.50Q143 239 140.50 255.50Q138 272 134 288Q116 346 143 388Q151 400 159 403Q167 408 172 417Q177 426 184.50 426Q192 426 203.50 436Q215 446 226 462Q253 502 243 527Q234 549 218 544Q212 543 207 542.50Q202 542 199 551Q191 569 170 570Q148 572 137 547Q131 534 128 526Q125 518 122 512Q117 503 103.50 501Q90 499 84 500.50Q78 502 74.50 504Q71 506 68.50 508Q66 510 61.50 510Q57 510 49 513.50Q41 517 33 525Q13 545 7 573Q1 601-4 612.50Q-9 624-1 633Q7 642 14 652Q31 681 38 684Q45 687 50 689Q62 694 70.50 706Q79 718 83.50 722.50Q88 727 93 729Q98 731 104 731Q110 731 118.50 731.50Q127 732 132 734Q137 736 141 738Q151 741 161.50 738Q172 735 175 732.50Q178 730 180 728Q186 722 199 721Q209 720 215.50 722Q222 724 228.50 726M150.50 79.50Q150.50 79.50 156.75 82.25Q163 85 173.50 81Q184 77 192.50 81.50Q201 86 215 84.50Q229 83 233.50 74.50Q238 66 244 58Q250 50 247 39.50Q244 29 243 22Q242 15 236.50 9Q231 3 223.50-4Q216-11 207-18Q185-34 167.50-32.50Q150-31 144-22.50Q138-14 130-8Q116 2 125 40Q130 60 134 67Q138 74 150.50 79.50Z"  horiz-adv-x="394" vert-adv-y="1024"  />

      
      <glyph glyph-name="uni40" unicode="&#x40;" d="M690 438L689 414Q689 408 692 396Q697 377 681 354Q681 317 670 303Q653 281 648.50 266Q644 251 639.50 246Q635 241 630 236Q612 222 607 213Q602 204 594.50 199Q587 194 575 184Q538 154 524 168Q512 183 503 187Q486 198 488 241Q465 233 453.50 222Q442 211 427 190.50Q412 170 391 162.50Q370 155 345 149.50Q320 144 304 149Q283 155 267 196Q260 212 251 216.50Q242 221 230 224Q203 231 180 288Q175 302 171 312Q155 345 195 458Q206 486 218 501.50Q230 517 241 528.50Q252 540 258.50 548.50Q265 557 272 564Q289 581 310.50 583Q332 585 342 586.50Q352 588 358 588Q368 588 374 580Q380 572 384.50 570Q389 568 393 567Q397 566 402 565Q410 563 415.50 553.50Q421 544 424 540Q430 530 438 533.50Q446 537 448 543.50Q450 550 452 558Q462 597 494 589Q510 585 514.50 572Q519 559 522 556Q525 553 528 552Q540 547 533 526Q526 505 519 488Q506 374 510 347.50Q514 321 521.50 310.50Q529 300 540.50 298.50Q552 297 559 302Q566 307 574 323L588 351Q608 395 602 415Q596 435 597.50 452Q599 469 601 486Q606 529 593 550.50Q580 572 575 582.50Q570 593 567 599Q562 610 555 613Q550 615 545.50 622.50Q541 630 534 638Q515 661 491 664.50Q467 668 451.50 669Q436 670 422 671Q393 673 375.50 681.50Q358 690 341 690.50Q324 691 308 688Q273 682 258.50 671Q244 660 237.50 655Q231 650 224 644Q217 639 188 622Q168 610 158.50 595Q149 580 143.50 569.50Q138 559 131 549Q124 539 122 524Q120 509 110 495Q100 481 97 465Q94 449 86.50 429.50Q79 410 76.50 392.50Q74 375 73.50 355.50Q73 336 73.50 316.50Q74 297 74 279Q80 268 85 248Q90 228 104 213Q112 206 123 196.50Q134 187 151 172Q168 157 177.50 149Q187 141 198 131Q214 116 244 89.50Q274 63 291.50 57Q309 51 327.50 49.50Q346 48 366.50 49Q387 50 405 49Q423 48 432.50 51Q442 54 460.50 62Q479 70 489.50 70.50Q500 71 510 74Q528 81 533.50 73Q539 65 529.50 56.50Q520 48 499 37.50Q478 27 464.50 17Q451 7 436 4.50Q421 2 414.50-2.50Q408-7 400-12Q381-23 355.50-23Q330-23 317-19Q304-15 295-10Q286-5 278 1Q270 7 254.50 11Q239 15 228.50 16.50Q218 18 210 20Q165 28 142 52Q132 64 124 75Q116 86 106.50 96Q97 106 79.50 111Q62 116 52.50 128Q43 140 38 155Q33 170 29.50 186.50Q26 203 17.50 225Q9 247 8.50 276.50Q8 306 6 329.50Q4 353 5 363.50Q6 374 8 384Q10 394 12.50 406Q15 418 17 436Q22 469 28 480Q40 504 46 524Q55 548 105 617Q163 688 205 701Q218 705 227.50 711Q237 717 247 723Q271 737 297 742Q314 745 327.50 749Q341 753 352 756Q380 763 398.50 760.50Q417 758 427.50 757.50Q438 757 446 756Q464 755 477 749.50Q490 744 502.50 739.50Q515 735 529 728Q576 707 611 654Q618 644 622 636Q633 616 642 606.50Q651 597 654 590.50Q657 584 659 578L664 564Q666 557 674.50 538.50Q683 520 684 501.50Q685 483 687.50 464Q690 445 690 438M404.50 309.50Q404.50 309.50 406.75 313.75Q409 318 416 326.50Q423 335 423.50 346.50Q424 358 426.50 363Q429 368 432 375Q439 391 439 411Q439 431 434.50 441.50Q430 452 424 461.50Q418 471 411.50 481Q405 491 401 505Q396 519 383.50 519Q371 519 364 517Q357 515 353.50 512Q350 509 348 506Q340 492 330 483Q313 468 308.50 457Q304 446 302 436.50Q300 427 294.50 407.50Q289 388 283.50 363Q278 338 284.50 324Q291 310 299 302Q307 294 316 287Q335 272 348.50 272Q362 272 371.50 278.50Q381 285 391 292Q400 301 404.50 309.50Z"  horiz-adv-x="703" vert-adv-y="1024"  />

      
      <glyph glyph-name="uni41" unicode="&#x41;" d="M407-6Q401-17 391-22.50Q381-28 371-20.50Q361-13 356.50-14Q352-15 348-16Q339-17 330-3Q321 11 320 19.50Q319 28 320 36Q324 54 314.50 68Q305 82 301.50 89Q298 96 298 109.50Q298 123 296.50 126.50Q295 130 294 132Q289 141 290.50 160Q292 179 285 186.50Q278 194 266.50 198Q255 202 248.50 195.50Q242 189 236.50 180Q231 171 223 164.50Q215 158 202.50 161Q190 164 175 155Q160 146 157 133.50Q154 121 150 108Q146 95 147.50 84Q149 73 147.50 62.50Q146 52 142 42Q134 17 123 15Q114 14 104 15Q93-5 78-9Q37-18 29 4Q24 17 23 38Q21 80 14 95Q7 110 10.50 131Q14 152 13 173Q12 194 13 205Q14 216 15.50 225Q17 234 19 242.50Q21 251 21.50 262.50Q22 274 25 289Q28 304 31 320Q39 360 37 380Q35 400 40.50 414Q46 428 53 439Q71 468 70 486.50Q69 505 68.50 515.50Q68 526 69 537Q74 591 120 706Q123 717 139 723Q155 729 171.50 724.50Q188 720 198.50 720.50Q209 721 216.50 728.50Q224 736 232.50 743Q241 750 253 754.50Q265 759 280 759Q295 759 312 750Q340 735 349 722Q358 709 361 701Q364 693 371 679Q378 665 377.50 654Q377 643 381 628Q385 613 381 593Q377 573 381 553.50Q385 534 385 527Q385 520 386 514Q387 497 393 484Q399 470 396.50 449.50Q394 429 395.50 415.50Q397 402 406 388Q423 361 418 328Q417 319 418.50 308.50Q420 298 420 289.50Q420 281 418 268Q415 249 419 222Q425 172 425 155Q425 138 426 126.50Q427 115 428 102Q431 68 428.50 33.50Q426-1 407-6M254 397Q254 397 255 406.50Q256 416 252.50 444Q249 472 249 485.50Q249 499 247 509Q244 525 230 513Q214 529 204 514Q197 503 197 478Q195 461 189.50 447Q184 433 182 416Q179 396 171.50 367Q164 338 173.50 324Q183 310 197 314Q211 318 218 318.50Q225 319 230 320Q242 321 248.50 329.50Q255 338 255.50 344.50Q256 351 255 358Q252 378 254 397Z"  horiz-adv-x="456" vert-adv-y="1024"  />

      
      <glyph glyph-name="uni42" unicode="&#x42;" d="M63 132L57 169Q57 179 53 182.50Q49 186 40 194Q31 202 29 219.50Q27 237 28 260Q30 289 39 358Q32 444 30 469Q19 601 36 632Q40 640 44 644Q52 652 51 670Q47 707 90 721Q103 725 115 731Q127 737 140 742Q169 752 189.50 741.50Q210 731 232 733.50Q254 736 277 739.50Q300 743 321.50 744Q343 745 358.50 734Q374 723 391.50 710Q409 697 423 681Q454 645 449 611Q465 573 456 539Q453 530 455 521Q459 503 455 489Q451 475 453.50 459.50Q456 444 449 428Q442 412 440 398Q438 384 430 374.50Q422 365 415.50 363.50Q409 362 403.50 357.50Q398 353 395.50 348Q393 343 388 337Q377 322 357 312Q368 293 383 282.50Q398 272 408.50 259.50Q419 247 419.50 236Q420 225 424 214Q428 203 427 196.50Q426 190 424.50 182.50Q423 175 421 166.50Q419 158 419.50 147.50Q420 137 417.50 129.50Q415 122 410.50 114.50Q406 107 400 98Q394 89 389 76Q383 60 369.50 47.50Q356 35 348.50 27.50Q341 20 334 7Q321-17 298-24Q277-30 266-13Q260-2 244.50-9Q229-16 220-20.50Q211-25 198.50-23.50Q186-22 173.50-19.50Q161-17 148-21.50Q135-26 124-24Q113-22 104-17Q84-7 78 11Q72 29 70 48.50Q68 68 64 84.50Q60 101 60 108L63 132M205 404Q205 351 224 351Q234 351 242 365.50Q250 380 252 393Q253 406 253.50 419.50Q254 433 266.50 453.50Q279 474 274.50 491.50Q270 509 259 512.50Q248 516 239.50 523.50Q231 531 220.50 536Q210 541 202.50 528.50Q195 516 202.50 500Q210 484 207.50 457Q205 430 205 404M233 260Q210 267 208 237Q206 216 203 194Q200 172 202.50 161Q205 150 208 137Q214 132 220 128Q226 124 231 120Q237 132 242.50 138Q248 144 252 151Q262 167 263.50 190.50Q265 214 260 228Q252 254 233 260Z"  horiz-adv-x="479" vert-adv-y="1024"  />

      
      <glyph glyph-name="uni43" unicode="&#x43;" d="M346 706Q375 704 398 676Q402 670 406 664.50Q410 659 412 652Q418 637 416 609Q414 581 419 563.50Q424 546 429 530Q438 502 418 455Q403 412 381 404L363 398Q337 389 318.50 391.50Q300 394 293 402Q273 428 283 462Q285 469 283 484Q281 499 266 503Q258 505 255.50 510Q253 515 251.50 518.50Q250 522 248.50 523.50Q247 525 239 519Q231 513 230 512.50Q229 512 223.50 514Q218 516 213 513Q208 510 203 502Q185 471 196 401Q200 380 204 362Q212 317 211.50 302Q211 287 205.50 270.50Q200 254 196 238Q184 197 199 168Q217 132 222 126Q231 117 244 118.50Q257 120 264 131.50Q271 143 277 156.50Q283 170 290 182Q297 194 306.50 196Q316 198 331 196.50Q346 195 351.50 195Q357 195 365 188.50Q373 182 373.50 159.50Q374 137 375 123.50Q376 110 368 99.50Q360 89 357.50 80.50Q355 72 354 64Q353 43 346.50 33Q340 23 334.50 16.50Q329 10 305.50 10Q282 10 263-12Q244-34 227-31.50Q210-29 203-11Q196 5 172 6Q165 7 159 9.50Q153 12 145 13.50Q137 15 129 20Q109 31 96 55Q88 70 80.50 80Q73 90 68 99Q55 119 58 137Q64 185 45 200Q34 207 34 211Q34 215 30 228Q24 246 30.50 270Q37 294 35 309.50Q33 325 30 342Q24 386 29 400Q34 414 31.50 440Q29 466 29 482.50Q29 499 26.50 526Q24 553 26 584Q33 662 79 691Q148 732 167 730Q173 730 181.50 728.50Q190 727 198 729Q206 731 212 735Q218 739 224 744Q248 766 267 749Q285 728 295 721Q312 708 346 706Z"  horiz-adv-x="441" vert-adv-y="1024"  />

      
      <glyph glyph-name="uni44" unicode="&#x44;" d="M425 638.50Q425 638.50 430.50 633.25Q436 628 439 608.50Q442 589 452 548Q462 507 448 460Q440 433 438 416Q432 384 424.50 361.50Q417 339 410 306.50Q403 274 392 250.50Q381 227 374.50 216Q368 205 363 196Q351 173 348.50 161Q346 149 341.50 134.50Q337 120 330 106Q311 74 284 82Q250 55 240 39.50Q230 24 222 17Q214 10 206.50 7Q199 4 192 2Q185 0 178-5Q171-10 158.50-13.50Q146-17 133-14Q101-8 99 38Q73 48 66 57Q50 75 50 103.50Q50 132 53.50 149.50Q57 167 60 183Q69 222 63 244.50Q57 267 59.50 286.50Q62 306 60.50 329.50Q59 353 60.50 371Q62 389 63.50 405.50Q65 422 65 436Q65 450 59 462.50Q53 475 49.50 488Q46 501 44 512Q41 539 34.50 551Q28 563 29 579.50Q30 596 26.50 612.50Q23 629 23.50 638.50Q24 648 21.50 658.50Q19 669 23 671Q29 674 34 696Q39 718 46 723.50Q53 729 61 733.50Q69 738 79 740Q102 743 121.50 732Q141 721 150.50 722Q160 723 170 728Q202 741 232 741Q262 741 274 737.50Q286 734 293 730.50Q300 727 306.50 723.50Q313 720 325.50 720Q338 720 344 714Q350 708 355.50 700Q361 692 368 684Q375 676 386.50 673.50Q398 671 401.50 668.50Q405 666 407 662.50Q409 659 411.50 654Q414 649 425 638.50M214 484Q214 484 209 478.50Q204 473 206 448.50Q208 424 213 393.50Q218 363 217 343Q216 323 213.50 304Q211 285 208.50 266Q206 247 206 228.50Q206 210 211 202Q216 194 222 194.50Q228 195 234 202.50Q240 210 242.50 227.50Q245 245 255.50 261.50Q266 278 272 295Q278 312 279.50 320Q281 328 282 334.50Q283 341 283.50 348.50Q284 356 289 372Q294 388 290.50 400.50Q287 413 285 429Q283 445 278.50 458.50Q274 472 258 477Q251 479 245.50 483Q240 487 235 490Q224 495 214 484Z"  horiz-adv-x="465" vert-adv-y="1024"  />

      
      <glyph glyph-name="uni45" unicode="&#x45;" d="M27 595L29 652Q29 666 26.50 680Q24 694 33.50 709.50Q43 725 62 737Q81 749 105 749Q129 749 143 741Q157 733 169 728Q181 723 196 720Q228 715 258 729Q291 745 311 727Q332 726 355 731Q393 739 407 732Q438 714 417 660Q414 652 414 646Q414 640 414 634Q414 616 411 607Q408 598 408 592Q408 586 408 578Q410 562 403 547Q399 538 399 532.50Q399 527 399 522Q399 509 385 497Q362 473 347 473Q344 473 341 475Q338 477 332 479Q308 487 281.50 489Q255 491 243 488Q213 482 206 459Q198 435 210 422Q215 416 221 414Q227 412 232.50 413.50Q238 415 247.50 413Q257 411 267 408Q294 402 303.50 406.50Q313 411 316.50 410Q320 409 322 407Q329 400 335 400Q351 401 357 386.50Q363 372 355 351Q355 348 352 336Q345 312 345.50 303Q346 294 342 284.50Q338 275 331 268Q314 253 294 259Q285 263 278 270Q227 285 209 263Q199 251 198 242Q197 233 197 210L197 173Q210 164 221 152.50Q232 141 248 140Q264 139 276.50 142.50Q289 146 300 150Q324 160 344 153.50Q364 147 369 136Q374 125 371 107Q368 89 368.50 80.50Q369 72 369 65Q369 48 356 32Q342 11 330 6.50Q318 2 299 4.50Q280 7 268 2.50Q256-2 246.50-9Q237-16 228-22Q213-32 194-22Q187-18 180-14Q162-5 136-6.50Q110-8 90 8.50Q70 25 69.50 49Q69 73 72 83.50Q75 94 78 100Q82 113 74 120Q50 139 57 170Q60 186 63 195Q66 204 64 214.50Q62 225 62.50 233.50Q63 242 62 250Q60 266 48 268Q33 270 28 300Q22 329 32.50 358Q43 387 41 403.50Q39 420 38 434L39 473Q39 502 34 512Q29 522 31 541.50Q33 561 30 571.50Q27 582 27 595Z"  horiz-adv-x="430" vert-adv-y="1024"  />

      
      <glyph glyph-name="uni46" unicode="&#x46;" d="M175.50 6.50Q175.50 6.50 173.25 1.75Q171-3 164.50-8.50Q158-14 146-9.50Q134-5 129.50 3Q125 11 122.50 20.50Q120 30 117.50 39Q115 48 108 54Q93 65 89 84Q83 120 82.50 170Q82 220 81 239Q80 258 77.50 267Q75 276 71.50 278Q68 280 62 283Q51 288 46 318.50Q41 349 43 390Q47 467 34 522Q22 574 25 620.50Q28 667 34 686Q46 730 77.50 724Q109 718 127.50 719Q146 720 158 724Q170 728 180 732Q190 736 206.50 735.50Q223 735 236.50 730.50Q250 726 264 722Q301 710 322 711Q343 712 355 713.50Q367 715 376 715Q395 715 407.50 705Q420 695 422 683Q424 671 423 658Q421 633 414 616.50Q407 600 406.50 589Q406 578 407 567.50Q408 557 409 547Q410 537 407.50 525.50Q405 514 395 502.50Q385 491 372 482Q343 464 325 469Q307 474 298.50 477.50Q290 481 282 483Q265 488 249 484Q233 480 227 469Q221 458 222.50 446Q224 434 234 424.50Q244 415 261.50 414Q279 413 290 414Q301 415 308 415Q323 415 335 402Q353 381 332 339Q327 328 323.50 310Q320 292 315 274.50Q310 257 302.50 245.50Q295 234 285 236Q275 238 271.50 242Q268 246 264 249Q256 257 246 254Q230 250 227.50 225.50Q225 201 226 177Q227 153 228.50 136Q230 119 228 102Q225 63 198 43Q189 37 184.50 26.50Q180 16 175.50 6.50Z"  horiz-adv-x="434" vert-adv-y="1024"  />

      
      <glyph glyph-name="uni47" unicode="&#x47;" d="M268 241Q240 241 242 267Q244 288 241 301Q236 323 239 333Q247 363 304 347Q314 344 320 344Q326 344 332 345Q350 348 364.50 345.50Q379 343 390 344Q401 345 410.50 347Q420 349 428 351Q436 353 443 353Q453 353 457.50 336.50Q462 320 461 300Q458 249 437 241Q422 235 408.50 222Q395 209 398.50 183.50Q402 158 402.50 143.50Q403 129 402.50 118.50Q402 108 401.50 100.50Q401 93 402.50 81.50Q404 70 401.50 51Q399 32 392 17Q375-19 349-10Q330-4 312 22Q306 31 300.50 37.50Q295 44 286 41.50Q277 39 270.50 31.50Q264 24 257 16Q215-36 150 1Q117 19 104 46Q99 58 93.50 73Q88 88 81 102Q65 135 50 146Q36 157 34 254Q33 275 35 290.50Q37 306 37 330L37 376Q37 398 36 418Q36 450 41 474Q9 495 16 555Q21 593 30.50 610.50Q40 628 45.50 645.50Q51 663 57 682.50Q63 702 74 708Q85 714 88 718Q91 722 94 726Q113 754 176 764Q204 769 231 759Q258 749 276 747Q294 745 310 744Q379 740 400 715Q415 698 419 680.50Q423 663 429.50 652.50Q436 642 434 630.50Q432 619 433.50 611.50Q435 604 432 596Q429 588 426 580Q420 559 427.50 550Q435 541 441 533.50Q447 526 450 518Q459 498 452 484Q445 470 436.50 457Q428 444 415 443Q380 440 368 431.50Q356 423 348 420Q328 411 311 422Q283 435 287 470Q289 512 256 516Q241 518 225 507Q209 496 200 478Q179 431 195 391Q199 381 199 366L199 340Q199 317 193.50 306Q188 295 187 280.50Q186 266 186.50 247Q187 228 189.50 206.50Q192 185 196 167Q207 125 227 127Q243 127 252 142Q255 148 259 154Q263 160 271 163.50Q279 167 282.50 175Q286 183 286 194Q287 206 284 243Q276 241 268 241Z"  horiz-adv-x="471" vert-adv-y="1024"  />

      
      <glyph glyph-name="uni48" unicode="&#x48;" d="M123 744Q194 765 205 718Q209 701 207 690Q205 679 205 666L205 636Q205 595 202 578.50Q199 562 201 540Q203 518 199.50 498Q196 478 200 471Q204 464 210 460Q218 454 231 454Q253 454 260 474Q263 483 260.50 504.50Q258 526 260 547Q262 568 259.50 585.50Q257 603 255.50 623Q254 643 254 664Q254 713 265 726Q276 739 299.50 745.50Q323 752 350 752Q413 752 433 724Q442 712 442 700Q442 688 441 681.50Q440 675 441 666Q444 642 438 618Q432 594 429.50 571Q427 548 426 521Q423 476 423 425Q423 334 416 310Q399 259 410 233Q413 226 412.50 216.50Q412 207 411.50 196.50Q411 186 411 176Q411 166 416 153Q425 126 399 96Q390 86 391 61.50Q392 37 392 25.50Q392 14 386.50 8.50Q381 3 363.50-3Q346-9 325-11Q272-16 258 10Q246 32 252.50 97.50Q259 163 261.50 196Q264 229 260 242Q256 255 247 258Q238 261 228 260Q206 258 198 247Q199 224 199 183.50Q199 143 198 102Q195 1 190.50-5.50Q186-12 174-15Q162-18 148-18Q116-20 106-7.50Q96 5 90 12Q84 19 73.50 22.50Q63 26 61 34Q59 42 57 54Q52 82 57 89.50Q62 97 62.50 110Q63 123 59 126.50Q55 130 51.50 155Q48 180 46 211Q44 242 44 270.50Q44 299 50 313Q64 345 52.50 375Q41 405 39 422.50Q37 440 36 454Q35 491 32 501Q29 511 28 528.50Q27 546 27 566Q27 586 27.50 607Q28 628 26.50 654Q25 680 27.50 706Q30 732 45.50 746Q61 760 83.50 763Q106 766 123 744Z"  horiz-adv-x="468" vert-adv-y="1024"  />

      
      <glyph glyph-name="uni49" unicode="&#x49;" d="M230 155Q237 138 251 138Q264 138 268 133Q275 122 268 91Q264 73 263.50 63Q263 53 262 46Q260 34 248 20Q235 9 219.50 4.50Q204 0 194-2.50Q184-5 172-11Q154-20 141.50-19Q129-18 122.50-17.50Q116-17 107.50-20Q99-23 94-22.50Q89-22 84-20Q69-14 56-14Q38-14 32 46Q29 70 31 92Q33 114 38 120.50Q43 127 50 129.50Q57 132 63 133.50Q69 135 74 136Q80 139 80.50 157.50Q81 176 82 192Q83 236 89 254Q99 281 86 300Q73 323 76 386Q78 424 75 448Q71 495 72 514Q73 528 73 536Q73 544 72 548Q69 556 54 556.50Q39 557 26 570Q13 583 15 611Q18 639 15 662Q12 685 18 698Q24 711 25 720Q26 729 28 736Q34 752 55.50 754Q77 756 95.50 753.50Q114 751 130 747Q172 737 185 737Q195 737 207.50 739.50Q220 742 232 744Q260 749 274.50 741Q289 733 292.50 722Q296 711 296 698.50Q296 686 294.50 672Q293 658 296 642Q305 606 297 583.50Q289 561 282 556.50Q275 552 268.50 551Q262 550 255.50 549.50Q249 549 244 542Q236 529 236 442L238 275Q238 211 230 155Z"  horiz-adv-x="315" vert-adv-y="1024"  />

      
      <glyph glyph-name="uni4a" unicode="&#x4a;" d="M175 461Q172 482 172 507Q172 550 165 565Q158 580 159 589.50Q160 599 156 606Q153 613 153.50 627Q154 641 143.50 655Q133 669 131 686.50Q129 704 138 716Q148 727 157.50 728Q167 729 174 729.50Q181 730 191 736Q201 742 212 741.50Q223 741 234 740Q265 739 280 749Q314 771 336 765Q382 751 362 654Q350 600 350.50 496.50Q351 393 350 359Q349 325 340 310Q327 290 327 250L328 175Q326 136 317 101Q308 66 279 46Q263 35 244.50 10Q226-15 216.50-23.50Q207-32 193.50-30.50Q180-29 175.50-24Q171-19 167-14Q157-2 124.50-6Q92-10 72-10Q52-10 36 10Q25 22 22 33Q17 53 7.50 63Q-2 73-6 82.50Q-10 92-11.50 101Q-13 110-14.50 120Q-16 130-24.50 149Q-33 168-30.50 190.50Q-28 213-19 224Q2 251 38 255Q67 274 83 264Q89 260 94.50 258.50Q100 257 104 254Q111 250 109 224Q104 194 107.50 179.50Q111 165 120 158Q139 144 160 157Q165 180 180 200L180 245Q180 322 177 335Q174 348 175.50 354Q177 360 180 366Q193 401 176 426Q165 441 175 461Z"  horiz-adv-x="383" vert-adv-y="1024"  />

      
      <glyph glyph-name="uni4b" unicode="&#x4b;" d="M40 573L41 592Q41 595 37.50 607.50Q34 620 33.50 631Q33 642 33.50 649.50Q34 657 34.50 663.50Q35 670 31.50 681.50Q28 693 34 703Q40 713 41 722.50Q42 732 47 741.50Q52 751 67.50 757Q83 763 91.50 758Q100 753 110 746Q138 726 164.50 728Q191 730 201 724.50Q211 719 216 710Q221 701 223 691Q225 681 228 671Q231 661 233 645Q235 629 225.50 612.50Q216 596 216.50 584Q217 572 220 558Q226 520 216 488Q214 484 213.50 480.50Q213 477 211 474Q254 503 264 517Q276 531 283 551.50Q290 572 293 577Q296 582 298 585Q303 590 306 606Q314 648 328 659Q325 689 336 716.50Q347 744 379 748.50Q411 753 425 741Q450 746 462 743.50Q474 741 486 728Q508 706 495 648Q492 637 491.50 624.50Q491 612 489 600Q484 572 464 555Q426 523 426 463Q426 437 416.50 427.50Q407 418 395 419Q383 420 372.50 413Q362 406 353 396Q331 370 330.50 356Q330 342 339 327Q348 312 360 290L383 249Q426 172 426 82Q426 67 435.50 46.50Q445 26 435.50 7Q426-12 412-15Q360-30 343 46Q330 100 281 139Q268 150 263 167L255 192Q252 202 246.50 209.50Q241 217 235 225.50Q229 234 220 233Q206 231 205 203L205 176Q205 95 184 83Q175 78 170 64L161 36Q156 21 148.50 8.50Q141-4 125-6Q94-10 82.50 23Q71 56 70 98Q69 140 67 151Q65 162 61.50 169.50Q58 177 54.50 183.50Q51 190 47 201Q38 227 36.50 260.50Q35 294 36.50 305Q38 316 35 333Q31 350 34 363.50Q37 377 36 388.50Q35 400 37 410Q39 420 41 432Q46 459 44 481.50Q42 504 42.50 513Q43 522 43.50 528Q44 534 44 540L40 573Z"  horiz-adv-x="504" vert-adv-y="1024"  />

      
      <glyph glyph-name="uni4c" unicode="&#x4c;" d="M204 143Q216 148 230 148Q244 148 252 144Q260 140 268 135Q287 122 309 122.50Q331 123 346 124.50Q361 126 375 116Q392 101 390 66Q388 33 375 23.50Q362 14 351 14Q340 14 329 15.50Q318 17 308 18Q298 19 291 13Q255-12 234 8Q224 19 208 18Q192 17 179.50 11.50Q167 6 154 2Q95-20 74 34Q70 45 67.50 54.50Q65 64 62 70Q55 84 58 118Q61 165 57 187Q53 209 50 222Q43 256 44 275Q47 308 41 346Q40 357 48 376Q74 436 48 468Q43 474 39 479Q35 484 35 493Q26 574 26 701Q26 712 36 722Q55 741 66 739Q103 729 132.50 736.50Q162 744 184 744.50Q206 745 222 724Q258 674 240 605Q235 589 236 574.50Q237 560 230.50 543.50Q224 527 225 513Q226 499 228 474Q233 409 210 373Q198 354 199.50 327Q201 300 202.50 282.50Q204 265 202.50 244.50Q201 224 201 196.50Q201 169 204 143Z"  horiz-adv-x="366" vert-adv-y="1024"  />

      
      <glyph glyph-name="uni4d" unicode="&#x4d;" d="M481 744Q513 744 540 727Q556 732 570.50 732Q585 732 606.50 728Q628 724 637.50 708Q647 692 646 681Q644 661 639 652Q648 628 630 593Q654 535 629 420Q623 392 617 366Q603 305 603 280Q603 264 605.50 233Q608 202 610 170Q612 138 612 111Q612 84 606.50 76.50Q601 69 598.50 53.50Q596 38 592 23Q588 8 581-2.50Q574-13 563.50-11.50Q553-10 550.50-7Q548-4 546 0Q543 10 534 13Q520 17 519.50 31.50Q519 46 523.50 52.50Q528 59 528 66.50Q528 74 525 82Q518 98 507 100.50Q496 103 489 112.50Q482 122 477 134Q465 163 468.50 178Q472 193 467 214Q451 278 465 311Q470 325 466 335Q460 356 463 371Q469 401 469 426.50Q469 452 456 452Q444 452 440 388Q436 317 427.50 304Q419 291 413 282.50Q407 274 402 263Q392 241 392 214.50Q392 188 390.50 183Q389 178 388 172Q383 154 383 128Q383 92 368 70Q366 67 364 57.50Q362 48 358 38Q348 14 332 14.50Q316 15 307.50 24.50Q299 34 294 47Q289 60 286 73Q283 86 276 98Q266 115 281 168Q287 189 286 202.50Q285 216 272 224Q266 228 259.50 267.50Q253 307 248.50 333.50Q244 360 240 382Q229 433 222.50 434Q216 435 214.50 429.50Q213 424 214 416Q215 408 216.50 400Q218 392 218.50 385Q219 378 212.50 358.50Q206 339 211 314Q216 289 216 276Q216 263 213 247.50Q210 232 211.50 220Q213 208 214 198Q216 173 203 165Q190 157 190.50 139Q191 121 202 109.50Q213 98 210 88Q207 78 203 72Q199 66 200 62Q201 58 200 52Q198 28 162 8Q133-8 114-4.50Q95-1 86 9Q77 19 79 31.50Q81 44 79.50 54.50Q78 65 77.50 76Q77 87 76 98Q75 128 70 138.50Q65 149 64 160Q63 171 63.50 180.50Q64 190 65 198Q66 206 62.50 215Q59 224 62 238Q65 252 63 265Q61 278 63.50 288.50Q66 299 68 310Q71 336 57 345Q41 358 35.50 372.50Q30 387 31 410Q32 433 31 447.50Q30 462 36.50 482.50Q43 503 43 525Q43 547 41.50 563Q40 579 38 593Q36 607 34 622Q31 653 37 674Q45 694 57.50 707.50Q70 721 98 720Q152 718 163 725Q186 739 215 726Q223 723 229 718Q285 704 292 673Q312 589 312 561.50Q312 534 313.50 529Q315 524 316.50 521.50Q318 519 318 516Q318 513 316 500Q314 487 319 480Q324 473 330.50 473Q337 473 343 480Q350 488 352.50 511.50Q355 535 355 540Q355 549 358.50 556.50Q362 564 363 573Q364 582 366 592Q369 618 379 628Q389 638 400 645.50Q411 653 414 667Q417 681 420.50 693Q424 705 431 716Q448 744 481 744Z"  horiz-adv-x="672" vert-adv-y="1024"  />

      
      <glyph glyph-name="uni4e" unicode="&#x4e;" d="M391 746Q422 755 436 739Q462 744 484 727Q506 710 495 662Q488 638 491 628Q494 618 499.50 608Q505 598 503 584.50Q501 571 498 555Q488 510 494 482Q509 416 482 344Q453 265 464 154Q473 74 470.50 49.50Q468 25 459 10Q450-5 429-5Q393-5 379 16Q371 28 371 47Q371 66 365.50 81Q360 96 352 109Q333 137 316 148Q288 167 273 239Q264 292 250 326Q246 336 244 347.50Q242 359 240 370Q234 394 219 394Q196 394 201 328Q202 314 205.50 302.50Q209 291 206 275Q203 259 198 242Q186 198 193 177Q200 153 198 126.50Q196 100 190 85.50Q184 71 169 65Q160 49 154 28.50Q148 8 145.50 1Q143-6 139-7Q122-13 104.50-5Q87 3 82 17.50Q77 32 77.50 45Q78 58 74.50 68.50Q71 79 71.50 86Q72 93 72 100Q74 116 67 124Q58 134 57.50 151Q57 168 57 180Q57 192 59 200Q66 219 65 258Q62 331 47 346Q28 365 26 416Q25 428 27.50 438.50Q30 449 28.50 460Q27 471 32 482Q40 503 37 541.50Q34 580 33.50 596.50Q33 613 31.50 631.50Q30 650 34.50 664.50Q39 679 50 690Q75 717 120 717Q140 731 166.50 739Q193 747 211 740Q229 733 236 718Q243 703 247.50 686Q252 669 256.50 651.50Q261 634 272 623Q283 612 288 596.50Q293 581 297 567Q301 553 305 543.50Q309 534 318 534Q327 534 328.50 559.50Q330 585 329.50 618Q329 651 328.50 682.50Q328 714 334 728.50Q340 743 355.50 750Q371 757 391 746Z"  horiz-adv-x="529" vert-adv-y="1024"  />

      
      <glyph glyph-name="uni4f" unicode="&#x4f;" d="M37.50 559.50Q37.50 559.50 36.75 565.75Q36 572 36 585Q36 598 40 615.50Q44 633 60.50 647.50Q77 662 89 676.50Q101 691 110 706Q119 721 132 730Q177 761 258 754Q291 751 328 730Q346 720 359 693.50Q372 667 377 657Q382 647 390 642.50Q398 638 404.50 630Q411 622 418.50 604.50Q426 587 432 564Q448 511 446 475Q444 439 443 402Q441 336 430 307Q419 278 413.50 258.50Q408 239 407 223Q406 207 406 192Q404 152 400.50 144Q397 136 389 128Q381 120 371.50 112.50Q362 105 353 98Q344 91 340 86.50Q336 82 330.50 74Q325 66 319.50 57Q314 48 309.50 40.50Q305 33 303 29.50Q301 26 296 17Q291 8 284-2Q245-50 210-6Q207-1 200.50-1Q194-1 185.50-5.50Q177-10 162-5Q147 0 138.50 11.50Q130 23 122.50 30Q115 37 108 41Q101 45 94 48Q75 58 74 64.50Q73 71 72.50 77Q72 83 70 92Q62 140 31 228Q7 294 18 365Q26 417 33 452Q44 505 41.50 526Q39 547 37.50 559.50M231.50 502.50Q231.50 502.50 222.25 501.75Q213 501 207 488.50Q201 476 198 464.50Q195 453 190.50 446Q186 439 182 432Q165 407 178 380Q197 341 198 328.50Q199 316 200 292.50Q201 269 204 244Q213 181 231 181Q241 181 250 204Q252 209 252.50 221Q253 233 256 249Q267 306 264.50 328Q262 350 261.50 367Q261 384 261 402L261 463Q261 485 255.50 494.50Q250 504 231.50 502.50Z"  horiz-adv-x="467" vert-adv-y="1024"  />

      
      <glyph glyph-name="uni50" unicode="&#x50;" d="M28 523L23 606Q23 627 22 651Q18 711 30 718Q41 724 45.50 731Q50 738 55.50 738Q61 738 72.50 738.50Q84 739 97 738Q128 736 138.50 729Q149 722 162 720Q175 718 188.50 717.50Q202 717 214 717.50Q226 718 235.50 718Q245 718 248 716Q260 711 268.50 712Q277 713 285 704.50Q293 696 296 691.50Q299 687 315.50 685Q332 683 343 681.50Q354 680 365 672Q376 664 383 662Q390 660 398.50 649Q407 638 410 633Q413 628 414 616Q415 588 428 575Q441 562 442.50 550Q444 538 445 522Q446 506 448.50 482.50Q451 459 438.50 430.50Q426 402 413.50 391Q401 380 393 364.50Q385 349 381.50 329.50Q378 310 360 290Q349 276 342.50 273Q336 270 330 266.50Q324 263 316 257.50Q308 252 298 248Q273 236 255 243Q244 238 233.50 236.50Q223 235 212 232Q189 224 186.50 205Q184 186 190.50 166Q197 146 198 132Q203 87 176 54Q159 34 154 11.50Q149-11 136-19Q114-39 94-10Q91-7 81-2Q67 6 63.50 23.50Q60 41 60 59Q60 77 57 93Q54 109 50 127Q41 176 41 194Q41 212 40.50 231Q40 250 45.50 265Q51 280 50 285Q49 290 52 296.50Q55 303 59 312.50Q63 322 65 332Q69 353 53 368Q35 385 35 404L35 410Q38 444 36 456Q28 490 28 523M188 477.50Q188 477.50 189 475.25Q190 473 191.50 465.50Q193 458 194.50 444Q196 430 194.50 414.50Q193 399 192 386Q190 353 200 349Q211 344 236 376Q263 409 281 456Q290 481 282 493Q265 513 268 529Q269 530 268 534Q266 536 263 539.50Q260 543 254 546Q231 555 212.50 546.50Q194 538 188.50 522Q183 506 183.50 497.50Q184 489 185 485.50Q186 482 188 477.50Z"  horiz-adv-x="454" vert-adv-y="1024"  />

      
      <glyph glyph-name="uni51" unicode="&#x51;" d="M426 240Q402 176 400.50 162Q399 148 398 145Q406 113 421.50 98.50Q437 84 443.50 76Q450 68 450.50 53.50Q451 39 443 29Q435 19 424 4Q395-35 379-32Q368-29 351.50-10Q335 9 327 17.50Q319 26 313 26.50Q307 27 301 21.50Q295 16 286 8Q256-19 208-11Q187-8 178.50-1Q170 6 160.50 10Q151 14 141.50 17Q132 20 122 34Q110 54 94.50 109Q79 164 76.50 176.50Q74 189 71 198Q55 207 50 223Q38 257 40.50 282Q43 307 39.50 317Q36 327 26 340Q3 374 23 413Q38 446 38 486Q37 541 57 614Q69 656 88 685Q107 714 121 720Q135 726 142 727.50Q149 729 158.50 730.50Q168 732 178.50 734Q189 736 199 737.50Q209 739 217 741.50Q225 744 236.50 751Q248 758 264 757.50Q280 757 290 748Q302 739 319 735Q336 731 343 731Q381 713 390 695Q396 681 409.50 668.50Q423 656 428 646Q445 611 453 564Q454 549 455 540Q456 531 456.50 523.50Q457 516 457.50 507.50Q458 499 460 480Q465 406 462.50 388Q460 370 453 355.50Q446 341 441 325.50Q436 310 436.50 290Q437 270 426 240M236 234L234 276Q234 284 242 292.50Q250 301 256 308Q265 316 285 309Q310 354 295 380Q287 395 291 412Q295 429 296.50 446Q298 463 296 469Q294 475 291.50 479.50Q289 484 285.50 487.50Q282 491 278.50 501Q275 511 259 517Q243 523 232 514.50Q221 506 215.50 494.50Q210 483 206.50 471Q203 459 200.50 447.50Q198 436 196 429.50Q194 423 191.50 407.50Q189 392 188 374Q184 328 192 311Q200 294 198.50 281Q197 268 202 256.50Q207 245 208.50 236.50Q210 228 212 220Q215 201 225.50 201Q236 201 236 234Z"  horiz-adv-x="489" vert-adv-y="1024"  />

      
      <glyph glyph-name="uni52" unicode="&#x52;" d="M196 180L199 132Q201 93 179 81Q173 41 173 10Q166-4 150-7Q120-11 111 9Q98 34 90 36Q88 37 83.50 37.50Q79 38 73 40.50Q67 43 68.50 56Q70 69 68 77Q66 85 63 94Q55 120 55 144Q55 161 55.50 175Q56 189 56 203Q54 248 44.50 280Q35 312 32 322Q26 344 26 364Q26 376 29 381.50Q32 387 35 393Q43 408 41.50 428Q40 448 38.50 468.50Q37 489 35.50 514.50Q34 540 32.50 569Q31 598 31 625Q31 713 53 724Q57 726 62.50 728.50Q68 731 76 736Q84 741 90.50 746Q97 751 104 754Q117 760 135.50 752.50Q154 745 162 742.50Q170 740 178 738.50Q186 737 196.50 737.50Q207 738 226.50 738.50Q246 739 268.50 738Q291 737 312 732Q380 718 417 657Q433 630 434 609Q435 588 436.50 568.50Q438 549 444 524.50Q450 500 448 478Q446 456 443.50 447.50Q441 439 438 432Q433 417 434 401Q436 375 430 360.50Q424 346 418 331Q401 294 381 289Q370 287 363 285Q356 283 355 276Q353 271 361 264.50Q369 258 377.50 245Q386 232 392 228Q398 224 403 223Q418 220 422 216Q431 205 435.50 198Q440 191 438 177Q436 163 438 148Q440 133 442 116.50Q444 100 442.50 89Q441 78 441 73L445 47Q445 23 431 8Q417-7 409-9Q401-11 394-8Q387-5 382-0.50Q377 4 374 5.50Q371 7 366.50 7.50Q362 8 357 10Q339 15 326 80Q319 112 302 121Q276 134 274 157Q273 168 272 187Q268 225 246 234Q235 238 226 238Q217 238 208 228Q196 213 196 180M246 370Q246 370 252.50 376Q259 382 271.50 391.50Q284 401 292.50 416.50Q301 432 306 448Q314 478 311.50 503.50Q309 529 305.50 537.50Q302 546 285.50 546Q269 546 252.50 554Q236 562 234 573Q232 597 219 590Q212 586 209 582.50Q206 579 204 562Q201 527 204.50 507Q208 487 209 480.50Q210 474 210.50 466.50Q211 459 211.50 449.50Q212 440 213.50 419.50Q215 399 214 385Q213 371 217 356Q233 358 246 370Z"  horiz-adv-x="474" vert-adv-y="1024"  />

      
      <glyph glyph-name="uni53" unicode="&#x53;" d="M49 684Q73 713 107 720Q122 724 137 727Q152 730 168 739Q198 756 209.50 756Q221 756 227.50 754Q234 752 242.50 751Q251 750 260.50 750Q270 750 282 748Q320 743 362 698Q389 669 395.50 638Q402 607 401 577Q400 534 407 513Q414 492 416 481Q418 470 413.50 450.50Q409 431 399 423Q389 415 377 413Q365 411 354 412Q343 413 336 413Q329 413 326.50 409.50Q324 406 321 402Q314 395 294 401Q274 407 261 426.50Q248 446 258 477Q261 487 264 495.50Q267 504 265 510Q261 524 246 525Q231 526 220 517Q205 503 200.50 482.50Q196 462 197.50 453Q199 444 199 434Q199 424 200 413Q204 387 212.50 378Q221 369 227 368Q233 367 238.50 367.50Q244 368 250 368Q256 368 267 363Q278 358 289.50 353Q301 348 310 337Q319 326 325.50 323Q332 320 337 317.50Q342 315 346.50 313Q351 311 354 303Q367 268 360 222Q358 205 356.50 195Q355 185 354 177.50Q353 170 352 164.50Q351 159 351 148Q351 107 337.50 85Q324 63 310 55Q296 47 292 43Q288 39 285.50 33Q283 27 278 20Q266 3 243-4Q217-12 187.50-11.50Q158-11 142-8Q126-5 112.50 7Q99 19 90.50 33.50Q82 48 77 49.50Q72 51 66 51L54 51Q38 51 32.50 60.50Q27 70 28.50 78.50Q30 87 29 103Q29 119 29.50 133Q30 147 41 157Q65 176 83 177Q101 178 107 184Q113 190 116.50 195Q120 200 126.50 201Q133 202 140 200Q157 195 157 180Q157 165 157.50 152.50Q158 140 161 130Q168 104 187 106Q208 108 210 148Q210 159 210 169L210 191Q210 238 165 263Q147 273 130 282Q113 291 98 304Q64 334 55 373Q46 412 42 423.50Q38 435 34.50 439Q31 443 27 445Q23 447 16 457Q5 472 11 492Q17 512 21 525.50Q25 539 25 555Q25 571 23.50 586.50Q22 602 22 618Q24 654 49 684Z"  horiz-adv-x="421" vert-adv-y="1024"  />

      
      <glyph glyph-name="uni54" unicode="&#x54;" d="M409 661Q414 616 411 585Q411 585 405 536Q403 519 404.50 492Q406 465 399 453.50Q392 442 375.50 439Q359 436 349.50 440.50Q340 445 332 450Q312 461 299.50 453Q287 445 282 429Q277 413 276 392Q273 361 276 311Q277 293 276.50 282.50Q276 272 276 264Q276 245 282 227Q288 209 288 200Q288 191 285.50 185.50Q283 180 278 176.50Q273 173 269 169.50Q265 166 260.50 162.50Q256 159 251 155Q256 106 253 77.50Q250 49 249 29Q248 9 239-2Q227-16 191-22Q170-23 160-0.50Q150 22 151.50 54Q153 86 150 103.50Q147 121 142.50 133Q138 145 134 154.50Q130 164 127 181Q124 198 131 218Q117 234 112 252Q107 270 113.50 299.50Q120 329 122.50 353Q125 377 124 397Q122 443 103 450Q89 454 72.50 443Q56 432 47 429Q38 426 29.50 433Q21 440 21.50 450Q22 460 25 471.50Q28 483 30.50 494Q33 505 29 515Q25 525 19 528Q13 531 8 538Q-5 554 1 594.50Q7 635 10 661Q13 687 14.50 699.50Q16 712 21 722Q26 732 36 740Q61 758 101 753Q285 728 310 736Q320 739 328 742Q397 770 409 661Z"  horiz-adv-x="418" vert-adv-y="1024"  />

      
      <glyph glyph-name="uni55" unicode="&#x55;" d="M230 632L226 524Q226 506 227.50 494.50Q229 483 230 475Q234 446 224 402.50Q214 359 220 324Q221 316 223 313Q225 310 226 307Q231 298 231.50 284Q232 270 242 254Q252 238 266.50 239.50Q281 241 290.50 269Q300 297 295.50 345Q291 393 289.50 418Q288 443 288 463Q287 498 291 533Q300 607 294 657Q292 675 290 697.50Q288 720 300 731Q312 742 325 740.50Q338 739 357 737Q376 735 388 736.50Q400 738 410 740Q436 743 444 736.50Q452 730 456 725Q460 720 463 708Q469 684 467 629Q465 538 469 472Q473 406 469 372Q465 338 466.50 309Q468 280 461 254Q454 228 448.50 204Q443 180 438 167Q433 154 428 142Q417 112 413 85Q406 43 384 29Q374 21 362 20.50Q350 20 344 16.50Q338 13 332 7.50Q326 2 319-4Q301-18 293.50-16Q286-14 281-8Q276-2 272 5Q261 24 256 25Q251 26 240.50 23Q230 20 216 17Q148 3 112 50Q83 88 70 146Q65 171 59.50 201Q54 231 44.50 253.50Q35 276 32 291Q29 306 31.50 320Q34 334 37 351Q46 400 41.50 429Q37 458 33.50 476.50Q30 495 28 513Q23 549 30 599Q34 626 35.50 647.50Q37 669 39 685Q45 735 80 738Q98 740 118.50 738Q139 736 147 737L178 740Q202 740 211 726Q230 702 230 632Z"  horiz-adv-x="497" vert-adv-y="1024"  />

      
      <glyph glyph-name="uni56" unicode="&#x56;" d="M0 703Q-4 745 42 740Q52 739 63.50 737Q75 735 87 734.50Q99 734 108 737Q117 740 126 742Q145 745 162 733Q173 725 175.50 709.50Q178 694 178.50 673.50Q179 653 179.50 629Q180 605 187.50 579Q195 553 196 539.50Q197 526 196 514Q195 482 200 460.50Q205 439 206 431.50Q207 424 208.50 416.50Q210 409 213 404.50Q216 400 222 403Q228 407 227 416Q225 441 242 461Q262 482 252.50 510Q243 538 247 566.50Q251 595 256 617Q261 639 260 655.50Q259 672 258 686.50Q257 701 257 712Q257 723 266 735Q275 747 299 749.50Q323 752 349 741Q354 745 364 743Q374 741 379 734Q392 742 411 738.50Q430 735 435.50 726Q441 717 439 708.50Q437 700 434 685Q418 619 418 560.50Q418 502 412 479.50Q406 457 400 441Q394 425 387 409Q371 373 366 348Q363 334 356 324.50Q349 315 343 304Q327 273 329 224Q334 131 317 121Q309 114 304.50 116Q300 118 296 112.50Q292 107 289 88.50Q286 70 278 48Q258-9 217-19Q192-25 181.50-16.50Q171-8 166.50 6.50Q162 21 159 36.50Q156 52 147 58Q112 93 120 150Q122 168 118 175.50Q114 183 112.50 191Q111 199 109 208Q104 230 98 236Q92 242 87.50 247.50Q83 253 80 263Q71 288 69 322Q67 356 64 373.50Q61 391 57 406Q47 444 44.50 472Q42 500 36.50 519.50Q31 539 25 558Q9 610 6.50 637.50Q4 665 2.50 679Q1 693 0 703Z"  horiz-adv-x="440" vert-adv-y="1024"  />

      
      <glyph glyph-name="uni57" unicode="&#x57;" d="M579 702.50Q579 702.50 584 699.75Q589 697 592.50 691.50Q596 686 601 680.50Q606 675 606 670Q606 665 605 659Q604 653 602.50 647.50Q601 642 603.50 635Q606 628 599 616.50Q592 605 582 581Q572 557 567.50 527Q563 497 560 467.50Q557 438 554.50 410.50Q552 383 544.50 361Q537 339 532.50 312.50Q528 286 524 258Q514 187 507 166Q500 145 500 138Q500 131 498 121Q493 95 475.50 72.50Q458 50 454 37Q450 24 446.50 12.50Q443 1 438-6.50Q433-14 423.50-13Q414-12 410.50-10Q407-8 404-6Q394 5 378.50 4Q363 3 356 4Q340 5 335.50 17Q331 29 327.50 55Q324 81 320 108Q308 175 292 175Q283 175 282 161Q281 147 280.50 138Q280 129 278 117Q276 105 270 81Q264 57 256 35Q235-18 206-18Q183-18 173-1Q169 6 165 13.50Q161 21 150.50 26.50Q140 32 133 38Q126 44 122 54Q116 67 112.50 100.50Q109 134 103 153Q97 172 90 190Q74 237 74.50 259Q75 281 72.50 297Q70 313 66 328Q62 343 56.50 359Q51 375 46.50 393.50Q42 412 36.50 428.50Q31 445 26 460Q16 495 25.50 521Q35 547 28 574Q21 601 10.50 627.50Q0 654-7.50 676.50Q-15 699-6 713.50Q3 728 19.50 731Q36 734 53 731.50Q70 729 86 725Q111 719 120.50 724.50Q130 730 136 732.50Q142 735 150 735Q158 735 170.50 728Q183 721 187.50 712Q192 703 193.50 691Q195 679 195 664.50Q195 650 202 622Q224 539 209 474Q200 436 206 411.50Q212 387 223 389Q233 391 236 404.50Q239 418 239.50 438.50Q240 459 240 482.50Q240 506 244 526Q248 546 250 557Q252 568 254 574Q259 586 267 589Q263 698 300 733Q307 739 316.50 739Q326 739 335 726Q344 713 345 680Q347 627 355 577Q363 527 366.50 504Q370 481 374 462Q387 384 403 438Q416 484 416 520Q416 556 411 561Q389 581 411 617Q420 633 421 657Q425 705 428.50 713.50Q432 722 441.50 729.50Q451 737 462 741Q490 752 508 731Q518 718 540 717Q562 716 565.50 712Q569 708 579 702.50Z"  horiz-adv-x="596" vert-adv-y="1024"  />

      
      <glyph glyph-name="uni58" unicode="&#x58;" d="M226 247L183 168Q183 134 163 114Q155 106 142 105Q138 98 134 86Q130 74 125 60Q113 27 96 8Q60-32 41-6Q35 2 31 15Q24 38 17 41Q9 46 11.50 63.50Q14 81 25 99.50Q36 118 43 143Q50 168 57.50 178.50Q65 189 67 195.50Q69 202 70 209Q74 226 84 241Q95 257 100 281Q111 330 120 347Q136 378 143 389Q135 401 129 409.50Q123 418 118 426Q111 439 106.50 459Q102 479 96 491Q90 503 82 514Q55 556 31 620Q24 639 6 654Q-40 692-19 722Q-8 739 8 739Q24 739 38 733.50Q52 728 56.50 728.50Q61 729 65 730Q76 735 91 732.50Q106 730 115.50 732Q125 734 133 737Q153 745 168 738Q183 731 184 716Q185 701 184.50 678.50Q184 656 187.50 646Q191 636 197 626Q216 592 220.50 576.50Q225 561 229 555Q246 587 260.50 612.50Q275 638 278 653Q281 668 282 681Q283 694 285 706Q289 733 307 743Q342 764 387 731Q403 733 420.50 733Q438 733 452 730Q485 723 487 701Q490 684 480.50 673Q471 662 466.50 655.50Q462 649 462 634Q462 604 432 590Q416 582 414.50 575Q413 568 415 566Q421 560 404 543Q387 526 377.50 512Q368 498 360 484Q340 451 331 443Q317 433 315.50 414Q314 395 327 374Q338 351 347 329.50Q356 308 351.50 299.50Q347 291 349 286.50Q351 282 356 276Q374 255 384 227Q391 208 400 192Q409 176 417 160Q447 99 457 26Q460 3 438-7Q422-16 401.50-9Q381-2 373 19.50Q365 41 355.50 49.50Q346 58 336.50 65Q327 72 318 81Q309 90 304.50 105Q300 120 293 138Q286 156 276 176Q253 220 226 247Z"  horiz-adv-x="463" vert-adv-y="1024"  />

      
      <glyph glyph-name="uni59" unicode="&#x59;" d="M271 151Q276 106 276.50 87.50Q277 69 275.50 57Q274 45 271 35Q264 12 251 10Q242 10 233.50 1.50Q225-7 220-11Q215-15 205.50-15Q196-15 184.50-12Q173-9 164 4Q144 33 151 118Q137 128 131.50 147Q126 166 132.50 203Q139 240 140.50 257Q142 274 140.50 285.50Q139 297 135 304.50Q131 312 124 326.50Q117 341 114.50 354.50Q112 368 106 374.50Q100 381 98 391.50Q96 402 91 412Q86 422 84.50 441Q83 460 75.50 472.50Q68 485 60.50 493.50Q53 502 46 510Q26 532 18 547.50Q10 563 9.50 574Q9 585 10 595Q13 621 8 630L-3 652Q-20 686-20 706Q-20 726-9.50 736Q1 746 13 742Q25 738 46 733.50Q67 729 78.50 731.50Q90 734 100 738Q125 746 140 740.50Q155 735 160.50 722.50Q166 710 167 695Q168 680 168.50 665Q169 650 175.50 639Q182 628 186 620Q190 612 192.50 603.50Q195 595 196 586Q197 577 198.50 564Q200 551 204 545.50Q208 540 213 540Q225 542 229 564.50Q233 587 238 602.50Q243 618 247 630Q256 654 254.50 663.50Q253 673 252.50 683.50Q252 694 256 703Q266 725 298.50 721Q331 717 351 716Q371 715 382 724Q393 733 404 732Q415 731 423 723Q442 704 420.50 668.50Q399 633 392 612.50Q385 592 388.50 577.50Q392 563 391 556Q390 549 386 541.50Q382 534 376 524Q333 448 299 334Q282 278 276 196Q274 165 271 151Z"  horiz-adv-x="412" vert-adv-y="1024"  />

      
      <glyph glyph-name="uni5a" unicode="&#x5a;" d="M320-4.50Q320-4.50 314.50-5.25Q309-6 297.50-6.50Q286-7 274.50-10Q263-13 253-10.50Q243-8 233-5Q183 10 156-6Q151-8 145.50-8Q140-8 129-3Q118 2 108.50 1Q99 0 90 0Q69-2 58 14Q52 23 50.50 50.50Q49 78 46 89Q39 107 43.50 118Q48 129 51 135Q54 141 55.50 147Q57 153 59 159.50Q61 166 64 175Q72 195 88 225Q104 255 109.50 269.50Q115 284 117.50 293.50Q120 303 121 309Q122 315 126.50 322Q131 329 140 333.50Q149 338 152.50 344.50Q156 351 155 355Q154 359 152.50 362.50Q151 366 149 370Q147 374 148 379.50Q149 385 158 400.50Q167 416 176 434Q200 482 196.50 491Q193 500 188 500Q183 500 177 498Q157 489 146 495Q124 506 89 487Q48 466 20 486Q10 493 4.50 510.50Q-1 528 0 547.50Q1 567 4 585Q12 634 8 646Q4 658 2 669Q0 680 0 692Q2 719 20 734Q36 747 55 743.50Q74 740 86 736.50Q98 733 117.50 730.50Q137 728 160.50 732.50Q184 737 203.50 736.50Q223 736 233.50 734Q244 732 254 731Q278 729 297 735.50Q316 742 330 745.50Q344 749 358 741Q392 721 375 663Q349 575 367 532Q375 509 373.50 487.50Q372 466 355.50 447.50Q339 429 332.50 416.50Q326 404 320.50 391.50Q315 379 309 365Q303 351 294 336Q280 313 281 309Q282 305 283 303.50Q284 302 280 295Q275 287 270 287Q265 287 261.50 283Q258 279 253 264Q238 219 224 198Q210 177 199 162Q193 156 189 149.50Q185 143 181 138Q207 146 227 144Q247 142 256 142Q265 142 279.50 150.50Q294 159 313.50 162Q333 165 344 157.50Q355 150 356.50 144Q358 138 357 130.50Q356 123 354.50 113.50Q353 104 354.50 86Q356 68 360 46Q364 24 357 14Q350 4 340.50 0.50Q331-3 320-4.50Z"  horiz-adv-x="391" vert-adv-y="1024"  />

      
      <glyph glyph-name="uni5b" unicode="&#x5b;" d="M141 54Q161 43 185.50 37.50Q210 32 220 29Q230 26 230.50 15Q231 4 223-3Q206-14 150-12Q139-12 128.50-14.50Q118-17 108-19Q86-24 75-13Q57 0 68 53Q76 98 61 102Q54 103 60 136.50Q66 170 65 206Q64 242 63.50 260.50Q63 279 63 299L63 336Q40 405 54 450Q58 465 60 480Q48 496 49 507Q50 518 48.50 537.50Q47 557 44 580.50Q41 604 45 618Q52 639 47 651Q38 673 43 700Q45 710 42.50 721Q40 732 42 737Q43 742 53.50 753Q64 764 75.50 768.50Q87 773 93.50 773.50Q100 774 112.50 770.50Q125 767 132 764.50Q139 762 146 762Q159 760 185 764Q213 768 220 750Q222 743 217.50 737Q213 731 197 729.50Q181 728 171 724Q161 720 150.50 719Q140 718 130.50 706Q121 694 121.50 674Q122 654 122 643.50Q122 633 122 622Q119 566 124 517.50Q129 469 123 423Q115 361 124 315Q125 311 128.50 307.50Q132 304 138 282Q145 254 138 220Q137 206 132.50 174Q128 142 132 116Q136 82 141 54Z"  horiz-adv-x="231" vert-adv-y="1024"  />

      
      <glyph glyph-name="uni5c" unicode="&#x5c;" d="M11 718.50Q11 718.50 12 725.25Q13 732 19 741Q25 750 34.50 754Q44 758 62 745Q80 732 92 710.50Q104 689 106.50 677.50Q109 666 111 656Q116 632 129 616Q159 579 168 525Q183 532 195 476Q205 420 247 344Q273 298 280 270Q294 213 300 200Q306 187 308.50 178Q311 169 314 160Q322 138 337 111Q365 62 349 15Q343-3 328.50-5.50Q314-8 304-5Q294-2 282 14Q270 30 260 50Q237 98 237 129Q237 151 226 178Q215 205 207 224Q199 243 191.50 267.50Q184 292 175.50 309Q167 326 159 342Q138 386 128 429Q118 473 110 487Q93 517 85.50 543.50Q78 570 72 580.50Q66 591 59.50 598.50Q53 606 45 615.50Q37 625 26 647Q15 669 12 687Q9 705 11 718.50Z"  horiz-adv-x="345" vert-adv-y="1024"  />

      
      <glyph glyph-name="uni5d" unicode="&#x5d;" d="M81 42Q108 74 108 101Q108 113 107 126.50Q106 140 105 154Q103 189 104 199.50Q105 210 104 217.50Q103 225 101 232Q94 260 99.50 280Q105 300 108 308Q122 357 114 389.50Q106 422 109.50 440Q113 458 111.50 467Q110 476 107 483.50Q104 491 101 498.50Q98 506 98 515Q98 524 104 547Q114 589 112.50 614.50Q111 640 110.50 659Q110 678 106 693Q99 725 72 729Q60 730 48 730.50Q36 731 26 732Q5 736 5 750Q5 770 37 765Q43 764 54 765Q65 766 77 767Q101 769 123 769Q140 767 156 763Q172 759 178 745Q184 731 185.50 702.50Q187 674 182.50 654.50Q178 635 177 617Q176 599 176 581Q178 537 181 524Q184 513 182 491L179 457Q178 445 179.50 432Q181 419 176.50 391.50Q172 364 176 339Q180 314 179.50 286.50Q179 259 177.50 233Q176 207 174.50 185.50Q173 164 173.50 144.50Q174 125 180 44Q170 14 147 0Q137-6 116-7Q95-8 67.50-9.50Q40-11 20.50-6.50Q1-2 0 9Q-1 20 17 28Q33 33 46.50 38.50Q60 44 81 42Z"  horiz-adv-x="227" vert-adv-y="1024"  />

      
      <glyph glyph-name="uni5e" unicode="&#x5e;" d="M30 304Q9 304 10 342Q11 365 32.50 416Q54 467 69 502Q120 623 124.50 655.50Q129 688 134 706Q139 724 147.50 737Q156 750 172 753Q205 759 219 719Q221 712 224.50 709Q228 706 232 702Q241 691 244 663Q250 620 264 595.50Q278 571 294 545.50Q310 520 318 484.50Q326 449 335.50 428.50Q345 408 348 401.50Q351 395 354 390Q357 385 361 378Q370 361 369.50 350.50Q369 340 367.50 337Q366 334 365 329.50Q364 325 364 320.50Q364 316 360 313Q332 290 303 320Q280 344 269.50 373.50Q259 403 253.50 410Q248 417 246.50 433Q245 449 237.50 458Q230 467 221 477.50Q212 488 207.50 498.50Q203 509 200 520Q195 538 195.50 554Q196 570 187 570Q178 570 175 554Q172 538 169 524.50Q166 511 163 498Q159 482 153 464Q132 443 128 426Q124 409 122.50 404.50Q121 400 120 396Q115 386 113 379Q101 339 82.50 319Q64 299 30 304Z"  horiz-adv-x="380" vert-adv-y="1024"  />

      
      <glyph glyph-name="uni5f" unicode="&#x5f;" d="M0 40Q0 102 67 96Q105 93 123 89Q158 83 171 83Q184 83 198 82.50Q212 82 225 83.50Q238 85 251 85Q264 85 277 86Q312 87 322.50 89.50Q333 92 348 90.50Q363 89 379 87Q395 85 409 83Q423 81 432 83Q448 81 471 84.50Q494 88 511 83.50Q528 79 540 78Q569 74 574 53Q580 33 568 23Q563 18 560 11Q557 4 547.50 0.50Q538-3 529.50-2Q521-1 512-4Q503-7 481.50-7Q460-7 432-3Q420-8 398.50-4.50Q377-1 358.50-2.50Q340-4 329.50-5Q319-6 308-6Q287-6 257 1Q230 7 217.50 5.50Q205 4 197 2.50Q189 1 170 3.50Q151 6 140.50 2.50Q130-1 124 3Q118 7 109.50 3Q101-1 92 1Q83 3 79.50 2Q76 1 72 0Q51-8 16 14Q1 23 0 40Z"  horiz-adv-x="577" vert-adv-y="1024"  />

      
      <glyph glyph-name="uni60" unicode="&#x60;" d="M295 694Q307 687 313 668.50Q319 650 310.50 639Q302 628 288 625.50Q274 623 260.50 637Q247 651 238 653Q229 655 227 660Q225 669 218 676.50Q211 684 208 682Q202 678 193 685Q193 685 179 696Q174 700 169.50 701.50Q165 703 157 714Q149 725 151.50 741.50Q154 758 163 760.50Q172 763 178 766Q184 769 194 765Q204 761 216 755Q242 741 249 730Q258 715 295 694Z"  horiz-adv-x="466" vert-adv-y="1024"  />

      
      <glyph glyph-name="uni61" unicode="&#x61;" d="M97-12Q87-15 74.50-10.50Q62-6 57 6.50Q52 19 50.50 35.50Q49 52 50 71Q51 90 51 108Q51 148 38 159Q11 179 16 261Q21 308 27 336Q37 382 36.50 414Q36 446 38.50 464Q41 482 44.50 494Q48 506 53 519Q58 532 62 562Q72 637 80 655Q91 680 106.50 706.50Q122 733 132 742Q155 759 198 745Q230 734 257.50 738Q285 742 299.50 741.50Q314 741 332 730.50Q350 720 360 705.50Q370 691 374 674Q381 645 375 600.50Q369 556 370.50 528.50Q372 501 382.50 476.50Q393 452 396.50 437.50Q400 423 402.50 408.50Q405 394 406.50 377.50Q408 361 412.50 340Q417 319 417.50 306.50Q418 294 417 286Q416 278 414.50 271.50Q413 265 415.50 251.50Q418 238 415.50 222Q413 206 410 191Q399 145 401 126Q405 92 401 77.50Q397 63 393.50 54Q390 45 385.50 29Q381 13 367 0Q353-13 340.50-8Q328-3 324.50 6.50Q321 16 318.50 26Q316 36 312.50 44Q309 52 300 53Q284 55 283 71.50Q282 88 283.50 100.50Q285 113 282 126Q279 139 272 151Q254 182 230 185Q194 190 180 150Q177 140 175.50 123.50Q174 107 167.50 94Q161 81 153.50 72Q146 63 139.50 55.50Q133 48 131 37Q123-6 97-12M186 407Q166 353 181 321Q191 303 207 302Q236 299 241.50 306.50Q247 314 254.50 322.50Q262 331 260 348.50Q258 366 257 379.50Q256 393 247.50 410Q239 427 236 446.50Q233 466 232 484Q228 524 214 524Q204 524 201.50 513.50Q199 503 198 486Q197 434 186 407Z"  horiz-adv-x="442" vert-adv-y="1024"  />

      
      <glyph glyph-name="uni62" unicode="&#x62;" d="M384 361Q356 330 327 311Q352 307 370.50 298.50Q389 290 389 272.50Q389 255 393 247Q397 239 401 231Q411 212 405.50 186.50Q400 161 398.50 137.50Q397 114 393 92Q383 38 351 28Q325 20 305 16Q275-26 253-23Q245-22 240-12Q235-2 227-1Q219 0 210-3L190-10Q171-16 130-2Q115 4 108 26Q101 48 95.50 57.50Q90 67 85 73.50Q80 80 75 84Q56 101 56 113Q55 133 59.50 165.50Q64 198 64.50 221.50Q65 245 62 266Q57 311 35 325Q24 332 19.50 336.50Q15 341 15 350Q15 359 19 376Q23 393 26 412Q29 431 34 439.50Q39 448 39.50 469.50Q40 491 38 509.50Q36 528 34 540Q31 569 34 587Q37 605 35.50 620.50Q34 636 35 650Q38 688 91 722Q135 750 166 735Q186 727 195.50 729Q205 731 210 731Q215 731 222 726.50Q229 722 238 723.50Q247 725 256 728Q282 734 295 730Q308 726 317 728.50Q326 731 332 731Q338 731 347 726Q356 721 362.50 720Q369 719 374 718Q383 716 389 700Q393 690 394 681.50Q395 673 396 665Q400 648 410 639Q418 632 418 623Q418 607 425 602.50Q432 598 438 583.50Q444 569 447 549Q455 498 437 456Q431 384 401 369Q396 367 384 361M226.50 543.50Q226.50 543.50 225.25 547.25Q224 551 221.50 556Q219 561 213.50 559Q208 557 206.50 552Q205 547 205 540Q205 533 205.50 525Q206 517 204.50 508Q203 499 203.50 491Q204 483 206 474Q210 449 210.50 429Q211 409 210.50 397Q210 385 210 376Q211 360 225 355Q239 349 256 380Q282 425 286 472Q288 489 280 503.50Q272 518 265 519.50Q258 521 248 522Q238 523 233.50 529.50Q229 536 226.50 543.50M231.50 129Q231.50 129 236.25 132.50Q241 136 243.50 144Q246 152 253 158.50Q260 165 262 185Q265 219 255.50 233.50Q246 248 243 269Q232 276 228 280.50Q224 285 220 282Q216 279 216.50 273.50Q217 268 215 261Q213 254 210.50 246.50Q208 239 210.50 227.50Q213 216 211.50 206Q210 196 207.50 179.50Q205 163 204.50 155Q204 147 213 134.50Q222 122 231.50 129Z"  horiz-adv-x="460" vert-adv-y="1024"  />

      
      <glyph glyph-name="uni63" unicode="&#x63;" d="M421.50 601.50Q421.50 601.50 422.75 596.25Q424 591 423.50 577.50Q423 564 416 539.50Q409 515 411.50 495.50Q414 476 417 469.50Q420 463 421.50 454Q423 445 421 435Q416 412 392 399Q369 389 352.50 377.50Q336 366 318 360Q314 348 310.50 338Q307 328 299 322.50Q291 317 281 320.50Q271 324 273 341.50Q275 359 267.50 365.50Q260 372 255.50 376Q251 380 247 384Q243 388 241 394Q236 412 243.50 426Q251 440 251.50 447Q252 454 251 462Q248 482 250.50 496Q253 510 243.50 520Q234 530 222.50 529Q211 528 203.50 498Q196 468 192 423.50Q188 379 187.50 327Q187 275 192 230Q202 127 228 125Q254 123 268 132.50Q282 142 290 154Q298 166 302.50 176.50Q307 187 313 189Q355 203 372 172Q379 159 379 135Q379 111 375.50 99.50Q372 88 367.50 80.50Q363 73 359 67Q355 61 353 51.50Q351 42 344 34Q337 26 327 20Q306 9 292 9Q237 9 210-11Q193-25 176-24Q151-23 142-14Q133-5 118 4Q103 13 100.50 26.50Q98 40 91 48Q84 56 76 68Q55 95 55 132Q55 155 56 170Q57 185 56 196Q56 217 38 239.50Q20 262 17 278.50Q14 295 11.50 309.50Q9 324 11 338Q13 352 15 367Q17 382 22.50 393Q28 404 26.50 415Q25 426 28.50 433Q32 440 35 448Q43 470 33 491.50Q23 513 22.50 526Q22 539 25 549.50Q28 560 31.50 569.50Q35 579 35 594Q35 609 40.50 629Q46 649 68.50 654.50Q91 660 94 670Q97 680 101 691Q104 702 120 715.50Q136 729 166.50 733.50Q197 738 210.50 734Q224 730 235 717.50Q246 705 256 703.50Q266 702 277 704Q329 711 381 682Q399 672 405 651Q411 630 415 621Q419 612 421.50 601.50Z"  horiz-adv-x="444" vert-adv-y="1024"  />

      
      <glyph glyph-name="uni64" unicode="&#x64;" d="M193 4Q153-27 125-27Q112-27 97.50-19Q83-11 78.50 0Q74 11 74 24.50Q74 38 74 54Q75 81 66 103Q57 125 54 135Q49 156 51 196Q52 227 49 233.50Q46 240 46 246Q46 252 50 288Q61 374 40 376Q29 378 29.50 381Q30 384 24 394.50Q18 405 16.50 411Q15 417 15 430Q15 443 18 454Q21 465 25 476Q53 552 45 604Q34 661 37.50 684.50Q41 708 48.50 718Q56 728 66 736.50Q76 745 90 750Q120 760 142.50 745Q165 730 184 726Q203 722 220 721Q264 718 274 710Q284 702 293.50 697.50Q303 693 310 690Q330 680 334 671Q338 662 345 654.50Q352 647 360 638Q378 615 383 589Q386 572 388 559Q390 546 393 534Q402 495 414 465Q438 404 426 371L424 367Q432 347 426.50 324.50Q421 302 418.50 292.50Q416 283 412 271Q408 259 403 240.50Q398 222 393 208.50Q388 195 382 184Q370 162 320 110Q304 94 297.50 78Q291 62 279 53Q263 23 252 16Q230-1 193 4M179 445L182 388Q184 364 179 343.50Q174 323 177.50 300Q181 277 179 261Q177 245 181 235Q185 225 183.50 214.50Q182 204 181 194Q179 168 191 166Q199 165 206 173.50Q213 182 218 195Q227 216 233 250Q235 264 243 280Q257 310 257 323.50Q257 337 258 340.50Q259 344 260.50 348Q262 352 264 357Q266 362 268 375.50Q270 389 264.50 409.50Q259 430 243.50 443Q228 456 222 465Q216 474 211 481Q201 495 192 489Q179 479 179 445Z"  horiz-adv-x="440" vert-adv-y="1024"  />

      
      <glyph glyph-name="uni65" unicode="&#x65;" d="M50 188L49 239Q49 253 50 265Q51 278 48 297Q43 330 43.50 345.50Q44 361 43.50 370.50Q43 380 41 388Q38 400 26.50 426Q15 452 15 482Q15 512 28 530Q40 548 37 567Q34 586 32.50 607.50Q31 629 32 651.50Q33 674 42 695Q64 746 130 744Q171 743 201 736Q231 729 245 730Q259 731 288 740Q330 756 355 738Q362 733 368.50 730.50Q375 728 380 723Q397 704 390 640Q388 621 386 602Q381 557 386 535Q391 513 391.50 496.50Q392 480 390 467Q384 438 367 438Q352 439 345.50 447.50Q339 456 335 466.50Q331 477 326.50 485.50Q322 494 307 494Q263 494 248.50 503.50Q234 513 223 514.50Q212 516 202 512Q181 503 177.50 479Q174 455 173 437Q172 419 173 404Q175 369 186.50 364.50Q198 360 206 363.50Q214 367 222 372Q246 388 271.50 387.50Q297 387 309.50 367Q322 347 320 328.50Q318 310 316.50 292Q315 274 312 258Q298 196 254 234Q197 238 183 220Q180 215 177 199Q174 183 176 165Q181 118 221 115Q247 113 268.50 122Q290 131 297 142Q303 154 312 155.50Q321 157 328 158.50Q335 160 342 160Q349 160 356 158Q374 152 377.50 130Q381 108 373 90Q365 72 362.50 57.50Q360 43 358 36Q356 29 346.50 18.50Q337 8 331.50 1Q326-6 314 4Q292 21 261-16Q253-27 244-32Q235-37 216-36Q197-35 186-26Q175-17 166-8Q151 11 114 6Q92 3 78 25Q75 28 73.50 36Q72 44 70 54Q63 80 57.50 87.50Q52 95 51.50 107Q51 119 49 132.50Q47 146 46 152.50Q45 159 47.50 168Q50 177 50 188Z"  horiz-adv-x="413" vert-adv-y="1024"  />

      
      <glyph glyph-name="uni66" unicode="&#x66;" d="M202 403Q202 375 231 375Q238 375 244 376.50Q250 378 264.50 381Q279 384 291.50 375.50Q304 367 310.50 363Q317 359 321 354Q328 345 327.50 320.50Q327 296 317 275.50Q307 255 272 250Q237 245 219.50 235Q202 225 198.50 202Q195 179 190 170Q185 161 184 150Q183 139 178.50 126.50Q174 114 175.50 103Q177 92 176.50 73.50Q176 55 171 37Q159-7 128-7Q116-7 109.50 5.50Q103 18 98.50 35Q94 52 89.50 71Q85 90 73 110.50Q61 131 59.50 157Q58 183 58 208L58 256Q58 344 38 366Q25 379 27 416L27 444Q27 459 32 468Q44 494 38.50 541Q33 588 28 613.50Q23 639 27.50 662Q32 685 33.50 698Q35 711 43.50 723Q52 735 58.50 736.50Q65 738 74 737Q86 736 95 745Q128 778 157 760Q169 752 181.50 743Q194 734 209 727Q224 720 243.50 722Q263 724 282 728Q301 732 320 730Q368 727 390 686Q405 658 401.50 627.50Q398 597 395 578Q392 559 392 546.50Q392 534 391 531Q390 528 389 526Q385 515 384 496Q383 477 380 468Q371 445 345 445Q328 445 316 451Q292 463 282 464Q268 466 263 480Q261 485 259 490.50Q257 496 253 500.50Q249 505 244.50 512.50Q240 520 226 518Q198 514 200 486L202 428L202 403Z"  horiz-adv-x="407" vert-adv-y="1024"  />

      
      <glyph glyph-name="uni67" unicode="&#x67;" d="M331-3Q331-3 329.50 0Q328 3 330 14.50Q332 26 332.50 48Q333 70 322 70Q313 70 306.50 50.50Q300 31 289 25.50Q278 20 267.50 17.50Q257 15 246.50 12.50Q236 10 229 3Q222-4 207-11.50Q192-19 172-7.50Q152 4 145 13Q138 22 134.50 30Q131 38 127 44Q123 50 114 52Q94 57 87 84.50Q80 112 73 143.50Q66 175 63.50 199Q61 223 58 245Q51 298 39 308.50Q27 319 25 338Q20 386 20 406.50Q20 427 31.50 450.50Q43 474 43 497.50Q43 521 39.50 533.50Q36 546 34 553.50Q32 561 32 570Q31 586 40 618Q45 635 48 649.50Q51 664 54 675Q65 715 110 715L124 715Q151 715 172 732Q182 739 194 743Q206 747 214 742.50Q222 738 236 739.50Q250 741 265.50 750.50Q281 760 302 763.50Q323 767 346 761.50Q369 756 378 743Q387 730 392.50 726.50Q398 723 403 720Q422 706 426 660Q429 621 416 586Q414 579 409 564Q404 549 396.50 532.50Q389 516 389 501.50Q389 487 387.50 474Q386 461 379 450Q362 423 312 425Q269 425 259 439Q254 446 253.50 457Q253 468 251.50 487Q250 506 240 522Q230 538 213 530Q202 524 197 489.50Q192 455 198 420Q204 385 203.50 377.50Q203 370 201 363Q188 316 197 230Q204 167 228 162Q250 158 264 185Q276 210 262 288Q250 349 282 352Q296 354 317.50 353Q339 352 355.50 356.50Q372 361 390.50 356.50Q409 352 421 339Q433 326 421 289Q397 215 412 160Q414 151 418 135Q422 119 425 99.50Q428 80 429 60Q430 40 426 24Q419-13 388.50-13Q358-13 346-11Q334-9 331-3Z"  horiz-adv-x="444" vert-adv-y="1024"  />

      
      <glyph glyph-name="uni68" unicode="&#x68;" d="M289 126L290 202L290 227Q290 257 284 265Q275 279 256 278.50Q237 278 228.50 267Q220 256 218.50 240Q217 224 216.50 205Q216 186 216 164Q214 120 216.50 96Q219 72 216.50 65.50Q214 59 206 52.50Q198 46 193 35.50Q188 25 184 14Q172-12 159-13Q120-17 92 29Q86 40 76 50Q55 73 68 124Q73 148 73 173.50Q73 199 71 210Q69 221 71 234.50Q73 248 68 258.50Q63 269 64.50 286Q66 303 62.50 315.50Q59 328 61 338Q63 348 58.50 354Q54 360 55.50 371.50Q57 383 58 396Q61 432 49 451Q37 470 28.50 495Q20 520 31 555Q48 608 41 672Q39 688 48 709Q61 742 133 746Q156 747 174.50 752Q193 757 211.50 752.50Q230 748 233 729Q236 710 238.50 703Q241 696 242 689Q244 676 238 647.50Q232 619 231 599.50Q230 580 230 562Q232 518 226.50 499.50Q221 481 223 471.50Q225 462 231 456Q251 438 286 460Q291 463 295 470Q290 498 289 539Q288 600 285 634.50Q282 669 286 692Q290 715 307 735Q324 755 338.50 752.50Q353 750 362.50 740.50Q372 731 380 732Q388 733 402 742Q439 764 471 715Q461 705 465.50 678.50Q470 652 467 640.50Q464 629 463 608.50Q462 588 461.50 569Q461 550 456 519Q449 476 455 420Q461 364 457 319Q453 274 455 244Q457 214 453.50 204Q450 194 446 184Q431 155 429 125Q427 100 426 75.50Q425 51 421 32Q412-11 380-11Q344-11 339 44Q316 51 301.50 68Q287 85 289 126Z"  horiz-adv-x="497" vert-adv-y="1024"  />

      
      <glyph glyph-name="uni69" unicode="&#x69;" d="M272 553Q238 544 259 437Q266 408 266.50 388.50Q267 369 261 346Q255 323 255 309Q255 295 251 276Q252 255 250.50 233.50Q249 212 248 192Q245 143 247 134Q249 125 253.50 122.50Q258 120 264 118Q278 113 281 105Q284 97 283.50 82.50Q283 68 280 52Q271 14 255 3Q246-3 236.50-1Q227 1 216 3Q182 9 158-3Q99-35 67-3Q54 10 51 37Q47 86 56.50 100Q66 114 72.50 117.50Q79 121 84 124Q95 129 95 141Q95 150 97.50 160.50Q100 171 102 183Q107 212 97 231Q86 253 87.50 267Q89 281 90 292L94 316Q96 345 93 365.50Q90 386 88.50 408.50Q87 431 87.50 451Q88 471 88 489Q88 531 79.50 539Q71 547 64 547.50Q57 548 50 548Q31 546 26 554Q15 565 15 582Q15 599 21.50 608Q28 617 30 628.50Q32 640 32 653Q34 683 30 692.50Q26 702 24.50 709.50Q23 717 23 724Q23 753 64 754Q89 755 115 753.50Q141 752 156 755Q208 765 239.50 763Q271 761 280 758Q305 748 307 703Q308 682 308 659Q308 636 310 612Q314 562 272 553Z"  horiz-adv-x="336" vert-adv-y="1024"  />

      
      <glyph glyph-name="uni6a" unicode="&#x6a;" d="M329 453Q336 440 341 406Q351 338 324 305Q296 275 322 236Q336 208 317 120Q307 69 296.50 48Q286 27 266 24Q257 22 249.50 15.50Q242 9 233 2Q192-33 124-7Q114-3 103.50 1Q93 5 76 7Q46 10 31 39Q24 52 18 68L7 103Q-2 130-2 154.50Q-2 179-1.50 190.50Q-1 202-3 212Q-5 222-5 233Q-5 244 0 252Q11 272 45 263Q64 258 76.50 257Q89 256 98 255Q126 252 124 220Q124 205 124 190Q124 153 144 150Q164 145 170 174Q173 185 172.50 197.50Q172 210 171.50 222.50Q171 235 172.50 244Q174 253 186 267.50Q198 282 195 297.50Q192 313 186.50 317.50Q181 322 179 330.50Q177 339 176 349Q175 359 175 369Q175 379 176 391Q177 403 171 427.50Q165 452 165.50 474.50Q166 497 162.50 514Q159 531 154 550Q144 598 147 644Q138 667 136 690.50Q134 714 139 723Q144 732 149 734Q154 736 160 738Q175 744 187 757Q199 770 216 776Q237 783 267 753Q287 755 299.50 755.50Q312 756 317 749.50Q322 743 324 741Q331 736 335 737Q332 724 338.50 702.50Q345 681 343.50 659.50Q342 638 343.50 621Q345 604 343.50 597.50Q342 591 340 586Q333 573 337 551Q341 529 335.50 520Q330 511 323.50 504.50Q317 498 319 481Q321 464 329 453Z"  horiz-adv-x="376" vert-adv-y="1024"  />

      
      <glyph glyph-name="uni6b" unicode="&#x6b;" d="M368 427Q368 427 358 406.50Q348 386 340.50 367Q333 348 333 338.50Q333 329 339.50 312.50Q346 296 356 275.50Q366 255 378.50 230Q391 205 400 183.50Q409 162 412.50 150.50Q416 139 418 128Q420 109 416.50 85Q413 61 414.50 46.50Q416 32 415.50 20Q415 8 411 0.50Q407-7 387.50-8.50Q368-10 351.50 5Q335 20 323.50 40.50Q312 61 304.50 81Q297 101 285 114Q273 127 264.50 152Q256 177 250 200Q244 223 237 240Q230 257 217.50 259Q205 261 201.50 253Q198 245 198.50 231.50Q199 218 201 201.50Q203 185 203.50 165.50Q204 146 201.50 129Q199 112 185.50 96.50Q172 81 167.50 65Q163 49 160 34Q157 19 152 8Q147-3 135-3Q111-4 91 24Q71 52 68 97Q65 123 53 131Q42 138 46 186Q47 199 50 209Q56 240 49.50 297.50Q43 355 41 365.50Q39 376 36.50 390.50Q34 405 32.50 421.50Q31 438 31 455.50Q31 473 35.50 492.50Q40 512 40.50 525Q41 538 40 548Q35 580 36.50 599.50Q38 619 35 641Q32 663 31 684Q30 705 34.50 722.50Q39 740 52.50 748Q66 756 76 754.50Q86 753 97 750Q130 741 143 743Q219 762 204 646Q201 627 198 612Q191 576 194 558Q196 546 196.50 532Q197 518 198 506Q200 478 211 478Q228 478 254 536Q260 549 262.50 557Q265 565 269.50 576Q274 587 280 598Q296 625 314 632Q301 660 309.50 680.50Q318 701 323 711Q328 721 334 727Q345 738 366.50 732Q388 726 404 731Q420 736 435.50 741.50Q451 747 466 749.50Q481 752 491.50 743Q502 734 504.50 722.50Q507 711 504 698Q498 671 474 645Q460 590 428 558Q424 511 398 479Q388 468 368 427Z"  horiz-adv-x="465" vert-adv-y="1024"  />

      
      <glyph glyph-name="uni6c" unicode="&#x6c;" d="M337.50 151.50Q337.50 151.50 339.75 147.75Q342 144 341.50 133.50Q341 123 339.50 112Q338 101 340 87.50Q342 74 343.50 61.50Q345 49 345 38Q345 27 338.50 19.50Q332 12 319 7Q306 2 290 0Q253-3 226 11Q201 24 178.50 19Q156 14 143.50 9.50Q131 5 114.50 1Q98-3 82-2.50Q66-2 55 15.50Q44 33 43 56Q42 79 50 103Q58 127 56 157.50Q54 188 52 209.50Q50 231 52 247Q57 285 43 300Q32 313 32 330.50Q32 348 33 359Q34 370 40 378Q46 386 47.50 391.50Q49 397 47 411Q39 468 41.50 499Q44 530 40.50 552.50Q37 575 39 589.50Q41 604 37 614Q33 624 34.50 628.50Q36 633 34 641.50Q32 650 30 660Q24 690 26.50 701Q29 712 36.50 726.50Q44 741 55 744Q66 747 68 749Q70 751 78 754Q99 760 109 755Q119 750 127 749.50Q135 749 143.50 749.50Q152 750 160 752L172 754Q193 760 204 752Q211 745 214 741Q217 737 215 729Q213 721 217 716Q221 711 220 701.50Q219 692 219.50 687.50Q220 683 221 678Q223 668 219 654Q215 640 214 635.50Q213 631 213 627Q213 614 209.50 602.50Q206 591 205.50 583.50Q205 576 205 566L205 544Q205 532 203.50 514Q202 496 200.50 471.50Q199 447 198 422Q194 356 188 338Q172 329 183 296L190 275Q200 245 200 216Q200 187 195 160Q224 144 236 143Q265 139 288.50 151Q312 163 322.50 161Q333 159 337.50 151.50Z"  horiz-adv-x="325" vert-adv-y="1024"  />

      
      <glyph glyph-name="uni6d" unicode="&#x6d;" d="M506 7Q473 7 476 63Q478 101 476.50 130Q475 159 464 191Q453 223 449 249Q445 275 455 306Q469 350 457 404Q455 413 455 422.50Q455 432 454 440Q453 459 444 459Q436 459 433 445Q427 409 419 389Q397 337 402 303Q415 253 400 226Q393 213 383 207Q373 201 370 196.50Q367 192 367.50 180.50Q368 169 362 162Q356 155 354.50 147Q353 139 351 132Q346 114 329 116Q312 118 305.50 137Q299 156 295.50 181Q292 206 288.50 231Q285 256 275.50 269Q266 282 262.50 295Q259 308 257 322Q252 356 244 369Q237 381 233 414Q229 447 225.50 459Q222 471 213 471Q203 470 202 456Q201 442 205 433Q209 424 206 401Q203 378 207 361Q211 344 215 330.50Q219 317 222 302Q232 261 226.50 232.50Q221 204 220 188.50Q219 173 207.50 166Q196 159 193.50 151.50Q191 144 190 134.50Q189 125 188 114.50Q187 104 181 89Q168 57 172.50 42Q177 27 167.50 10Q158-7 140.50-8.50Q123-10 112.50-2Q102 6 94 18Q61 72 68 140Q69 155 70.50 170Q72 185 70 207Q67 261 45 292Q30 313 28 343Q23 395 34 417Q39 427 39 448.50Q39 470 38.50 479.50Q38 489 39.50 493.50Q41 498 41.50 509.50Q42 521 42 536Q41 563 35 585.50Q29 608 27.50 624.50Q26 641 28 657Q31 693 40.50 708Q50 723 58 725.50Q66 728 76 728Q86 728 93 731.50Q100 735 108 738Q125 745 141 739Q157 733 168.50 735Q180 737 190 740Q216 750 229.50 745Q243 740 254 728Q265 716 266.50 708.50Q268 701 271 698Q274 695 278 692Q286 685 286 670Q286 648 298 611Q319 541 338 535Q342 534 352 541Q362 548 366 562Q372 586 370 598.50Q368 611 373.50 618Q379 625 379.50 631Q380 637 381 647Q382 657 385 670Q393 703 408 720Q423 737 439 740Q455 743 471.50 741.50Q488 740 504.50 738.50Q521 737 538 744Q583 764 600 745Q605 740 609.50 738Q614 736 618 734Q626 728 627.50 715.50Q629 703 631 698.50Q633 694 635 690Q646 664 649 600Q652 495 645 480Q652 439 638 422Q635 419 632 416Q614 398 610 368Q608 356 610.50 348Q613 340 613 331Q613 322 612.50 315Q612 308 612 300Q610 271 611.50 258Q613 245 611.50 239Q610 233 608 228Q603 213 605 202.50Q607 192 605 186Q603 180 600 174Q592 157 593.50 130.50Q595 104 591.50 86Q588 68 588 49Q586-4 574 0Q569 2 565.50-5Q562-12 559.50-23Q557-34 546-30.50Q535-27 531.50-14Q528-1 522.50 3Q517 7 506 7Z"  horiz-adv-x="671" vert-adv-y="1024"  />

      
      </font>
</defs>
</svg>
